<svg xmlns="http://www.w3.org/2000/svg" xmlns:xlink="http://www.w3.org/1999/xlink" xmlns:lucid="lucid" width="1742" height="1042"><g transform="translate(1761 1741)" lucid:page-tab-id="0_0"><path d="M-2000-2000H0v1500h-2000z" fill="#fff"/><g filter="url(#a)"><path d="M-1540-1390a30 30 0 0 1 30-30h1160a30 30 0 0 1 30 30v580a30 30 0 0 1-30 30h-1160a30 30 0 0 1-30-30z" fill-opacity="0"/><path d="M-1537.63-1401.44l.9-2.18 2.46-4 .5-.6m5.54-5.54l.6-.5 4-2.47 2.2-.9m7.52-2.06l3.9-.3h3.97m7.95 0h7.94m7.95 0h7.95m7.95 0h7.94m7.95 0h7.93m7.95 0h7.94m7.95 0h7.95m7.94 0h7.94m7.95 0h7.95m7.94 0h7.95m7.93 0h7.95m7.94 0h7.95m7.94 0h7.96m7.94 0h7.95m7.94 0h7.94m7.94 0h7.95m7.94 0h7.95m7.94 0h7.95m7.96 0h7.94m7.94 0h7.95m7.94 0h7.94m7.95 0h7.94m7.95 0h7.94m7.95 0h7.95m7.95 0h7.94m7.95 0h7.93m7.95 0h7.94m7.95 0h7.94m7.96 0h7.94m7.95 0h7.95m7.94 0h7.94m7.95 0h7.95m7.94 0h7.95m7.94 0h7.96m7.94 0h7.95m7.94 0h7.94m7.94 0h7.95m7.94 0h7.95m7.94 0h7.95m7.95 0h7.95m7.94 0h7.95m7.93 0h7.95m7.94 0h7.95m7.95 0h7.94m7.95 0h7.95m7.95 0h7.94m7.95 0h7.93m7.95 0h7.94m7.95 0h7.94m7.96 0h7.94m7.95 0h7.94m7.94 0h7.94m7.95 0h7.94m7.95 0h7.94m7.95 0h7.95m7.95 0h7.95m7.94 0h7.94m7.94 0h7.95m7.94 0h7.95m7.94 0h7.95m7.95 0h7.95m7.94 0h7.95m7.93 0h7.95m7.94 0h7.95m7.94 0h7.96m7.94 0h7.95m7.94 0h7.94m7.94 0h7.95m7.94 0h7.95m7.95 0h7.94m7.96 0h7.94m7.95 0h7.94m7.94 0h7.94m7.95 0h3.97l3.9.3m7.55 2.07l2.17.9 4 2.46.6.5m5.54 5.54l.5.6 2.47 4 .9 2.2m2.06 7.52l.3 3.9v4.03m0 8.05v8.06m0 8.05v8.05m0 8.06v8.06m0 8.06v8.05m0 8.06v8.05m0 8.06v8.05m0 8.05v8.06m0 8.06v8.06m0 8.05v8.06m0 8.05v8.06m0 8.05v8.05m0 8.06v8.06m0 8.06v8.05m0 8.06v8.05m0 8.06v8.05m0 8.05v8.06m0 8.06v8.06m0 8.05v8.06m0 8.05v8.06m0 8.05v8.05m0 8.06v8.06m0 8.06v8.05m0 8.06v8.05m0 8.06v8.05m0 8.05v8.06m0 8.06v8.06m0 8.05v8.06m0 8.05v8.06m0 8.05v8.05m0 8.06v8.06m0 8.06v8.05m0 8.06v8.05m0 8.06v8.05m0 8.05v8.06m0 8.06v8.06m0 8.05v4.03l-.3 3.9m-2.07 7.55l-.9 2.17-2.46 4-.5.6m-5.54 5.54l-.6.5-4 2.47-2.2.9m-7.52 2.06l-3.9.3h-3.97m-7.95 0h-7.94m-7.95 0h-7.95m-7.95 0h-7.94m-7.95 0h-7.93m-7.95 0h-7.94m-7.95 0h-7.94m-7.96 0h-7.94m-7.95 0h-7.95m-7.94 0H-497m-7.93 0h-7.95m-7.94 0h-7.95m-7.94 0h-7.96m-7.94 0h-7.95m-7.94 0h-7.94m-7.94 0h-7.95m-7.94 0h-7.95m-7.94 0h-7.95m-7.95 0H-640m-7.95 0h-7.94m-7.94 0h-7.94m-7.95 0h-7.94m-7.95 0h-7.94m-7.95 0h-7.95m-7.95 0h-7.94m-7.95 0h-7.93m-7.95 0h-7.94m-7.95 0H-783m-7.96 0h-7.94m-7.95 0h-7.94m-7.94 0h-7.94m-7.95 0h-7.95m-7.94 0h-7.95m-7.94 0h-7.96m-7.94 0h-7.95m-7.94 0h-7.94m-7.94 0h-7.95m-7.94 0h-7.95m-7.94 0h-7.95m-7.95 0h-7.95m-7.94 0h-7.95m-7.93 0h-7.95m-7.94 0h-7.95m-7.95 0h-7.94m-7.94 0h-7.95m-7.95 0h-7.94m-7.95 0h-7.93m-7.95 0h-7.94m-7.95 0h-7.94m-7.96 0h-7.94m-7.95 0h-7.94m-7.94 0h-7.94m-7.95 0h-7.94m-7.95 0h-7.94m-7.95 0h-7.96m-7.94 0h-7.94m-7.95 0h-7.94m-7.94 0h-7.95m-7.94 0h-7.95m-7.94 0h-7.95m-7.95 0h-7.95m-7.94 0h-7.95m-7.93 0h-7.95m-7.94 0h-7.95m-7.94 0h-7.96m-7.94 0h-7.95m-7.95 0h-7.94m-7.94 0h-7.95m-7.94 0h-7.95m-7.95 0h-7.94m-7.96 0h-7.94m-7.95 0h-7.94m-7.94 0h-7.94m-7.95 0h-3.97l-3.9-.3m-7.54-2.07l-2.18-.9-4-2.46-.6-.5m-5.54-5.54l-.5-.6-2.47-4-.9-2.18m-2.06-7.54l-.3-3.9v-4.03m0-8.05v-8.06m0-8.05v-8.05m0-8.06v-8.06m0-8.06v-8.05m0-8.06v-8.05m0-8.06v-8.05m0-8.05v-8.06m0-8.06v-8.06m0-8.05v-8.06m0-8.05v-8.06m0-8.05v-8.05m0-8.06v-8.06m0-8.06v-8.05m0-8.06v-8.05m0-8.06v-8.05m0-8.05v-8.06m0-8.06v-8.06m0-8.05v-8.06m0-8.05v-8.06m0-8.05v-8.05m0-8.06v-8.06m0-8.06v-8.05m0-8.06v-8.05m0-8.06v-8.05m0-8.05v-8.06m0-8.06v-8.06m0-8.05v-8.06m0-8.05v-8.06m0-8.05v-8.05m0-8.06v-8.06m0-8.06v-8.05m0-8.06v-8.05m0-8.06v-8.05m0-8.05v-8.06m0-8.06v-8.06m0-8.05v-4.03l.3-3.9" stroke="#4c535d" stroke-width="2" fill="none"/><path d="M-1540-1468.9a6 6 0 0 1 6-6h425.82a6 6 0 0 1 6 6v30.9a6 6 0 0 1-6 6H-1534a6 6 0 0 1-6-6z" fill="#4c535d"/><use xlink:href="#b" transform="matrix(1,0,0,1,-1532,-1466.8880208333333) translate(0 21.58376736111111)"/><use xlink:href="#c" transform="matrix(1,0,0,1,-1532,-1466.8880208333333) translate(147.63454861111114 21.58376736111111)"/><use xlink:href="#d" transform="matrix(1,0,0,1,-1532,-1466.8880208333333) translate(285.18880208333337 21.58376736111111)"/></g><path d="M-1473.36-1366.33a12 12 0 0 1 12-12h296a12 12 0 0 1 12 12v23.4l-320 .02z" stroke="#3a414a" stroke-width="2" fill="#6db1ff"/><path d="M-1473.36-1342.9h320v94.23a12 12 0 0 1-12 12h-296a12 12 0 0 1-12-12z" stroke="#3a414a" stroke-width="2" fill="#cfe4ff"/><use xlink:href="#e" transform="matrix(1,0,0,1,-1473.3604644818283,-1378.3294270833333) translate(58.898654513888914 26.08376736111111)"/><use xlink:href="#f" transform="matrix(1,0,0,1,-1473.3604644818283,-1378.3294270833333) translate(143.2953559027778 26.08376736111111)"/><path d="M-1443.36-1145.84a12 12 0 0 1 12-12h236a12 12 0 0 1 12 12v21.05h-260z" stroke="#3a414a" stroke-width="2" fill="#85da8c"/><path d="M-1443.36-1124.8h260v87.14a12 12 0 0 1-12 12h-236a12 12 0 0 1-12-12z" stroke="#3a414a" stroke-width="2" fill="#c3f7c8"/><use xlink:href="#g" transform="matrix(1,0,0,1,-1443.3604644818283,-1157.8363802083336) translate(59.443359375 25.08376736111111)"/><use xlink:href="#h" transform="matrix(1,0,0,1,-1443.3604644818283,-1157.8363802083336) translate(149.08094618055554 25.08376736111111)"/><path d="M-1443.36-1118.56a6 6 0 0 1 6-6h248a6 6 0 0 1 6 6v78.94a6 6 0 0 1-6 6h-248a6 6 0 0 1-6-6z" fill="none"/><use xlink:href="#i" transform="matrix(1,0,0,1,-1438.3604644818283,-1119.556075486237) translate(15.505642361111114 35.13975694444444)"/><use xlink:href="#j" transform="matrix(1,0,0,1,-1438.3604644818283,-1119.556075486237) translate(126.55164930555557 35.13975694444444)"/><use xlink:href="#k" transform="matrix(1,0,0,1,-1438.3604644818283,-1119.556075486237) translate(3.6566840277777857 62.02777777777778)"/><use xlink:href="#l" transform="matrix(1,0,0,1,-1438.3604644818283,-1119.556075486237) translate(132.48697916666669 62.02777777777778)"/><path d="M-1182.86-1094.37h106.48" stroke="#3a414a" fill="none"/><path d="M-1182.85-1093.9h-.5v-.94h.5z" stroke="#3a414a" stroke-width=".05" fill="#3a414a"/><path d="M-1061.62-1094.37l-14.26 4.64v-9.27z" stroke="#3a414a" fill="#3a414a"/><path d="M-1182.86-1056.2h56.86a6 6 0 0 1 6 6v47.88a6 6 0 0 0 6 6h43.62" stroke="#3a414a" fill="none"/><path d="M-1182.85-1055.72h-.5v-.95h.5z" stroke="#3a414a" stroke-width=".05" fill="#3a414a"/><path d="M-1055.6-996.32l-14.28 4.64v-9.27z" stroke="#3a414a" fill="#3a414a"/><path d="M-1443.36-1145.84a12 12 0 0 1 12-12h236a12 12 0 0 1 12 12v21.05h-260z" stroke="#3a414a" stroke-width="2" fill="#85da8c"/><path d="M-1443.36-1124.8h260v87.14a12 12 0 0 1-12 12h-236a12 12 0 0 1-12-12z" stroke="#3a414a" stroke-width="2" fill="#c3f7c8"/><use xlink:href="#g" transform="matrix(1,0,0,1,-1443.3604644818283,-1157.8363802083336) translate(59.443359375 25.08376736111111)"/><use xlink:href="#h" transform="matrix(1,0,0,1,-1443.3604644818283,-1157.8363802083336) translate(149.08094618055554 25.08376736111111)"/><path d="M-1443.36-1118.56a6 6 0 0 1 6-6h248a6 6 0 0 1 6 6v78.94a6 6 0 0 1-6 6h-248a6 6 0 0 1-6-6z" fill="none"/><use xlink:href="#i" transform="matrix(1,0,0,1,-1438.3604644818283,-1119.556075486237) translate(15.505642361111114 35.13975694444444)"/><use xlink:href="#j" transform="matrix(1,0,0,1,-1438.3604644818283,-1119.556075486237) translate(126.55164930555557 35.13975694444444)"/><use xlink:href="#k" transform="matrix(1,0,0,1,-1438.3604644818283,-1119.556075486237) translate(3.6566840277777857 62.02777777777778)"/><use xlink:href="#l" transform="matrix(1,0,0,1,-1438.3604644818283,-1119.556075486237) translate(132.48697916666669 62.02777777777778)"/><path d="M-1182.86-1094.37h106.48" stroke="#3a414a" fill="none"/><path d="M-1182.85-1093.9h-.5v-.94h.5z" stroke="#3a414a" stroke-width=".05" fill="#3a414a"/><path d="M-1061.62-1094.37l-14.26 4.64v-9.27z" stroke="#3a414a" fill="#3a414a"/><path d="M-1182.86-1056.2h56.86a6 6 0 0 1 6 6v47.88a6 6 0 0 0 6 6h43.62" stroke="#3a414a" fill="none"/><path d="M-1182.85-1055.72h-.5v-.95h.5z" stroke="#3a414a" stroke-width=".05" fill="#3a414a"/><path d="M-1055.6-996.32l-14.28 4.64v-9.27z" stroke="#3a414a" fill="#3a414a"/><path d="M-1740-1233.4a12 12 0 0 1 12-12h146.7a12 12 0 0 1 12 12v14.5H-1740z" stroke="#3a414a" stroke-width="2" fill="#6db1ff"/><path d="M-1740-1218.9h170.7v67.46a12 12 0 0 1-12 12H-1728a12 12 0 0 1-12-12z" stroke="#3a414a" stroke-width="2" fill="#cfe4ff"/><use xlink:href="#m" transform="matrix(1,0,0,1,-1740,-1245.3906721413493) translate(37.46397569444444 21.52777777777778)"/><use xlink:href="#n" transform="matrix(1,0,0,1,-1740,-1245.3906721413493) translate(93.30164930555554 21.52777777777778)"/><use xlink:href="#o" transform="matrix(1,0,0,1,-1740,-1245.3906721413493) translate(107.55946180555556 21.52777777777778)"/><use xlink:href="#p" transform="matrix(1,0,0,1,-1740,-1245.3906721413493) translate(85.5 48.415798611111114)"/><path d="M-1740-1212.9a6 6 0 0 1 6-6h158.7a6 6 0 0 1 6 6v67.46a6 6 0 0 1-6 6H-1734a6 6 0 0 1-6-6z" fill="none"/><use xlink:href="#q" transform="matrix(1,0,0,1,-1735,-1213.9019376331748) translate(0.15060763888889994 43.083767361111114)"/><use xlink:href="#r" transform="matrix(1,0,0,1,-1735,-1213.9019376331748) translate(58.59244791666667 43.083767361111114)"/><path d="M-1740-1233.4a12 12 0 0 1 12-12h146.7a12 12 0 0 1 12 12v14.5H-1740z" stroke="#3a414a" stroke-width="2" fill="#6db1ff"/><path d="M-1740-1218.9h170.7v67.46a12 12 0 0 1-12 12H-1728a12 12 0 0 1-12-12z" stroke="#3a414a" stroke-width="2" fill="#cfe4ff"/><use xlink:href="#m" transform="matrix(1,0,0,1,-1740,-1245.3906721413493) translate(37.46397569444444 21.52777777777778)"/><use xlink:href="#n" transform="matrix(1,0,0,1,-1740,-1245.3906721413493) translate(93.30164930555554 21.52777777777778)"/><use xlink:href="#o" transform="matrix(1,0,0,1,-1740,-1245.3906721413493) translate(107.55946180555556 21.52777777777778)"/><use xlink:href="#p" transform="matrix(1,0,0,1,-1740,-1245.3906721413493) translate(85.5 48.415798611111114)"/><path d="M-1740-1212.9a6 6 0 0 1 6-6h158.7a6 6 0 0 1 6 6v67.46a6 6 0 0 1-6 6H-1734a6 6 0 0 1-6-6z" fill="none"/><use xlink:href="#q" transform="matrix(1,0,0,1,-1735,-1213.9019376331748) translate(0.15060763888889994 43.083767361111114)"/><use xlink:href="#r" transform="matrix(1,0,0,1,-1735,-1213.9019376331748) translate(58.59244791666667 43.083767361111114)"/><path d="M-1700-1354a6 6 0 0 1 6-6h148a6 6 0 0 1 6 6v45.33a6 6 0 0 1-6 6h-148a6 6 0 0 1-6-6z" fill="none"/><use xlink:href="#s" transform="matrix(1,0,0,1,-1695,-1355) translate(0 17.560763888888893)"/><use xlink:href="#t" transform="matrix(1,0,0,1,-1695,-1355) translate(52.517361111111114 17.560763888888893)"/><use xlink:href="#u" transform="matrix(1,0,0,1,-1695,-1355) translate(130.4513888888889 17.560763888888893)"/><use xlink:href="#v" transform="matrix(1,0,0,1,-1695,-1355) translate(0 43.373263888888886)"/><use xlink:href="#w" transform="matrix(1,0,0,1,-1695,-1355) translate(46.75347222222223 43.373263888888886)"/><path d="M-1300-1207a6 6 0 0 1 6-6h123.6a6 6 0 0 1 6 6v19.5a6 6 0 0 1-6 6H-1294a6 6 0 0 1-6-6z" fill="none"/><use xlink:href="#x" transform="matrix(1,0,0,1,-1295,-1208.0136848958334) translate(0 17.46701388888889)"/><use xlink:href="#y" transform="matrix(1,0,0,1,-1295,-1208.0136848958334) translate(88.83680555555554 17.46701388888889)"/><path d="M-590-1302.54a6 6 0 0 1 6-6h148a6 6 0 0 1 6 6v51.15a6 6 0 0 1-6 6h-148a6 6 0 0 1-6-6z" stroke="#000" stroke-width="2" fill="#61d7c7"/><use xlink:href="#z" transform="matrix(1,0,0,1,-585.0000000000001,-1303.5432859705609) translate(13.237847222222221 35.02777777777778)"/><use xlink:href="#A" transform="matrix(1,0,0,1,-585.0000000000001,-1303.5432859705609) translate(69.98697916666666 35.02777777777778)"/><path d="M-700-1629a30 30 0 0 1 30-30h320a30 30 0 0 1 30 30v142.5a30 30 0 0 1-30 30h-320a30 30 0 0 1-30-30z" fill-opacity="0"/><path d="M-697.63-1640.44l.9-2.18 2.46-4 .5-.6m5.54-5.54l.6-.5 4-2.47 2.18-.9m7.54-2.06l3.9-.3h4m8 0h8m8 0h8m8 0h8m8 0h8m8 0h8m8 0h8m8 0h8m8 0h8m8 0h8m8 0h8m8 0h8m8 0h8m8 0h8m8 0h8m8 0h8m8 0h8m8 0h8m8 0h8m8 0h8m8 0h4l3.9.3m7.55 2.07l2.17.9 4 2.46.6.5m5.54 5.54l.5.6 2.47 4 .9 2.2m2.06 7.52l.3 3.9v3.96m0 7.9v7.93m0 7.9v7.92m0 7.92v7.92m0 7.9v7.93m0 7.9v7.92m0 7.92v7.92m0 7.9v7.93m0 7.9v7.92m0 7.92v3.96l-.3 3.9m-2.07 7.54l-.9 2.18-2.46 4-.5.6m-5.54 5.54l-.6.5-4 2.47-2.2.9m-7.52 2.06l-3.9.3h-4m-8 0h-8m-8 0h-8m-8 0h-8m-8 0h-8m-8 0h-8m-8 0h-8m-8 0h-8m-8 0h-8m-8 0h-8m-8 0h-8m-8 0h-8m-8 0h-8m-8 0h-8m-8 0h-8m-8 0h-8m-8 0h-8m-8 0h-8m-8 0h-8m-8 0h-8m-8 0h-4l-3.9-.3m-7.55-2.07l-2.17-.9-4-2.46-.6-.5m-5.54-5.54l-.5-.6-2.47-4-.9-2.2m-2.06-7.52l-.3-3.9v-3.96m0-7.9v-7.93m0-7.9v-7.92m0-7.92v-7.92m0-7.9v-7.93m0-7.9v-7.92m0-7.92v-7.92m0-7.9v-7.93m0-7.9v-7.92m0-7.92v-3.96l.3-3.9" stroke="#008573" stroke-width="2" fill="none"/><path d="M-700-1707.9a6 6 0 0 1 6-6h202.88a6 6 0 0 1 6 6v30.9a6 6 0 0 1-6 6H-694a6 6 0 0 1-6-6z" fill="#008573"/><use xlink:href="#B" transform="matrix(1,0,0,1,-692,-1705.8880208333333) translate(0 21.58376736111111)"/><use xlink:href="#C" transform="matrix(1,0,0,1,-692,-1705.8880208333333) translate(91.88368055555554 21.58376736111111)"/><use xlink:href="#D" transform="matrix(1,0,0,1,-692,-1705.8880208333333) translate(119.43359374999999 21.58376736111111)"/><path d="M-1654.65-1246.9v-54.6a6 6 0 0 1 6-6h157.9" stroke="#3a414a" fill="none"/><path d="M-1654.17-1246.4h-.95v-.5h.95z" stroke="#3a414a" stroke-width=".05" fill="#3a414a"/><path d="M-1475.98-1307.5l-14.26 4.63v-9.27z" stroke="#3a414a" fill="#3a414a"/><path d="M-1181.86-1130.53h55.86a6 6 0 0 0 6-6v-49.88a6 6 0 0 1 6-6h37.62" stroke="#3a414a" fill="none"/><path d="M-1181.85-1130.06h-.5v-.95h.5z" stroke="#3a414a" stroke-width=".05" fill="#3a414a"/><path d="M-1061.62-1192.4l-14.26 4.62v-9.27z" stroke="#3a414a" fill="#3a414a"/><path d="M-1060-1202.17a6 6 0 0 1 6-6h61.07a6 6 0 0 1 6 6v19.52a6 6 0 0 1-6 6H-1054a6 6 0 0 1-6-6z" fill="none"/><use xlink:href="#E" transform="matrix(1,0,0,1,-1055,-1203.1734114583335) translate(0 17.46701388888889)"/><path d="M-210.7-1061.3V-726a6 6 0 0 1-6 6h-1090.66a6 6 0 0 1-6-6v-94.25" stroke="#3a414a" fill="none"/><path d="M-210.23-1061.28h-.95v-.5h.95z" stroke="#3a414a" stroke-width=".05" fill="#3a414a"/><path d="M-1313.36-835.02l4.63 14.26h-9.27z" stroke="#3a414a" fill="#3a414a"/><path d="M-626.97-1115.3H-516a6 6 0 0 0 6-6V-1228" stroke="#3a414a" fill="none"/><path d="M-626.95-1114.83h-.52v-.95h.52z" stroke="#3a414a" stroke-width=".05" fill="#3a414a"/><path d="M-510-1242.77l4.63 14.26h-9.26z" stroke="#3a414a" fill="#3a414a"/><path d="M-1313.36-1235.17v59.95" stroke="#3a414a" fill="none"/><path d="M-1312.88-1235.16h-.95v-.5h.94z" stroke="#3a414a" stroke-width=".05" fill="#3a414a"/><path d="M-1313.36-1160.45l-4.64-14.27h9.28z" stroke="#3a414a" fill="#3a414a"/><path d="M-1054-1006.08a6 6 0 0 1 6-6h55.07a6 6 0 0 1 6 6v19.52a6 6 0 0 1-6 6H-1048a6 6 0 0 1-6-6z" fill="none"/><use xlink:href="#F" transform="matrix(1,0,0,1,-1048.9930555555557,-1007.0768229166667) translate(0 17.46701388888889)"/><path d="M-510-1310.04v-170" stroke="#3a414a" fill="none"/><path d="M-509.52-1309.54h-.96v-.52h.96z" stroke="#3a414a" stroke-width=".05" fill="#3a414a"/><path d="M-510-1494.82l4.63 14.27h-9.26z" stroke="#3a414a" fill="#3a414a"/><path d="M-290.7-1119.94a6 6 0 0 1 6-6h148a6 6 0 0 1 6 6v51.15a6 6 0 0 1-6 6h-148a6 6 0 0 1-6-6z" stroke="#000" stroke-width="2" fill="#6db1ff"/><use xlink:href="#G" transform="matrix(1,0,0,1,-285.70878472222216,-1120.9412157687725) translate(21.397569444444443 35.02777777777778)"/><path d="M-210.7-1127.44v-424.78a6 6 0 0 0-6-6h-145.92" stroke="#3a414a" fill="none"/><path d="M-210.23-1126.94h-.95v-.5h.95z" stroke="#3a414a" stroke-width=".05" fill="#3a414a"/><path d="M-377.38-1558.22l14.26-4.63v9.27z" stroke="#3a414a" fill="#3a414a"/><path d="M-1100-874a6 6 0 0 1 6-6h235a6 6 0 0 1 6 6v19.52a6 6 0 0 1-6 6h-235a6 6 0 0 1-6-6z" fill="none"/><use xlink:href="#x" transform="matrix(1,0,0,1,-1095,-875) translate(0 17.46701388888889)"/><use xlink:href="#H" transform="matrix(1,0,0,1,-1095,-875) translate(88.83680555555554 17.46701388888889)"/><use xlink:href="#I" transform="matrix(1,0,0,1,-1095,-875) translate(156.62326388888889 17.46701388888889)"/><use xlink:href="#J" transform="matrix(1,0,0,1,-1095,-875) translate(200.83333333333331 17.46701388888889)"/><path d="M-948.47-1288a12 12 0 0 1 12-12h296a12 12 0 0 1 12 12v29.9h-320z" stroke="#000" stroke-width="2" fill="#fc9432"/><path d="M-948.47-1258.1h320v315.48a12 12 0 0 1-12 12h-296a12 12 0 0 1-12-12z" stroke="#000" stroke-width="2" fill="#fff3d9"/><use xlink:href="#K" transform="matrix(1,0,0,1,-948.4672222222223,-1300) translate(19.13085937500003 29.08376736111111)"/><use xlink:href="#L" transform="matrix(1,0,0,1,-948.4672222222223,-1300) translate(164.18294270833334 29.08376736111111)"/><use xlink:href="#M" transform="matrix(1,0,0,1,-948.4672222222223,-1300) translate(218.80533854166666 29.08376736111111)"/><path d="M-789.3-1155.84v24.9" stroke="#3a414a" stroke-width="2" fill="none"/><path d="M-788.32-1155.8h-1.95v-1.04h1.95zM-788.32-1129.94h-1.95v-1.03h1.95z" stroke="#3a414a" stroke-width=".05" fill="#3a414a"/><path d="M-789.3-1057.8v24.91" stroke="#3a414a" stroke-width="2" fill="none"/><path d="M-788.32-1057.76h-1.95v-1.03h1.95zM-788.32-1031.9h-1.95v-1.02h1.95z" stroke="#3a414a" stroke-width=".05" fill="#3a414a"/><path d="M-916.1-1221a6 6 0 0 1 6-6h241.63a6 6 0 0 1 6 6v57.16a6 6 0 0 1-6 6H-910.1a6 6 0 0 1-6-6z" stroke="#000" stroke-width="2" fill="#ffc48d"/><use xlink:href="#N" transform="matrix(1,0,0,1,-911.1123827403942,-1221.9900260416669) translate(56.201388888888886 25.27777777777778)"/><use xlink:href="#O" transform="matrix(1,0,0,1,-911.1123827403942,-1221.9900260416669) translate(55.146701388888886 53.23784722222222)"/><use xlink:href="#P" transform="matrix(1,0,0,1,-911.1123827403942,-1221.9900260416669) translate(123.20225694444446 53.23784722222222)"/><path d="M-916.1-1122.94a6 6 0 0 1 6-6h241.63a6 6 0 0 1 6 6v57.15a6 6 0 0 1-6 6H-910.1a6 6 0 0 1-6-6z" stroke="#000" stroke-width="2" fill="#ffc48d"/><use xlink:href="#Q" transform="matrix(1,0,0,1,-911.1123827403942,-1123.9417317708335) translate(99.44683159722223 25.27777777777778)"/><use xlink:href="#R" transform="matrix(1,0,0,1,-911.1123827403942,-1123.9417317708335) translate(66.17534722222221 53.23784722222222)"/><use xlink:href="#P" transform="matrix(1,0,0,1,-911.1123827403942,-1123.9417317708335) translate(112.17361111111111 53.23784722222222)"/><path d="M-916.1-1024.9a6 6 0 0 1 6-6h241.63a6 6 0 0 1 6 6v57.16a6 6 0 0 1-6 6H-910.1a6 6 0 0 1-6-6z" stroke="#000" stroke-width="2" fill="#ffc48d"/><use xlink:href="#S" transform="matrix(1,0,0,1,-911.1123827403942,-1025.8934375000001) translate(84.87434895833334 25.27777777777778)"/><use xlink:href="#T" transform="matrix(1,0,0,1,-911.1123827403942,-1025.8934375000001) translate(62.842013888888886 53.23784722222222)"/><use xlink:href="#P" transform="matrix(1,0,0,1,-911.1123827403942,-1025.8934375000001) translate(115.50694444444446 53.23784722222222)"/><path d="M-887.65-754a6 6 0 0 1 6-6h184.72a6 6 0 0 1 6 6v19.52a6 6 0 0 1-6 6h-184.73a6 6 0 0 1-6-6z" fill="none"/><use xlink:href="#U" transform="matrix(1,0,0,1,-882.6548762201448,-755) translate(0 17.46701388888889)"/><use xlink:href="#V" transform="matrix(1,0,0,1,-882.6548762201448,-755) translate(96.69270833333334 17.46701388888889)"/><path d="M-680-1394a6 6 0 0 1 6-6h143.25a6 6 0 0 1 6 6v19.52a6 6 0 0 1-6 6H-674a6 6 0 0 1-6-6z" fill="none"/><use xlink:href="#W" transform="matrix(1,0,0,1,-675,-1395) translate(0 17.46701388888889)"/><use xlink:href="#X" transform="matrix(1,0,0,1,-675,-1395) translate(65.68576388888889 17.46701388888889)"/><use xlink:href="#Y" transform="matrix(1,0,0,1,-675,-1395) translate(82.44791666666666 17.46701388888889)"/><path d="M-986.43-1192.4h52.93" stroke="#3a414a" fill="none"/><path d="M-986.42-1191.94h-.5v-.95h.5z" stroke="#3a414a" stroke-width=".05" fill="#3a414a"/><path d="M-918.73-1192.4l-14.27 4.62v-9.27z" stroke="#3a414a" fill="#3a414a"/><path d="M-200-1371.73a6 6 0 0 1 6-6h148a6 6 0 0 1 6 6v51.15a6 6 0 0 1-6 6h-148a6 6 0 0 1-6-6z" fill="none"/><use xlink:href="#Z" transform="matrix(1,0,0,1,-195,-1372.734356205242) translate(3.428819444444443 20.560763888888893)"/><use xlink:href="#aa" transform="matrix(1,0,0,1,-195,-1372.734356205242) translate(69.11458333333334 20.560763888888893)"/><use xlink:href="#ab" transform="matrix(1,0,0,1,-195,-1372.734356205242) translate(43.60677083333333 46.373263888888886)"/><path d="M-1488.95-928a12 12 0 0 1 12-12h327.18a12 12 0 0 1 12 12v13.6h-351.18z" stroke="#3a414a" stroke-width="2" fill="#a4a2fc"/><path d="M-1488.95-914.4h351.18v64.76a12 12 0 0 1-12 12h-327.18a12 12 0 0 1-12-12z" stroke="#3a414a" stroke-width="2" fill="#dedeff"/><use xlink:href="#ac" transform="matrix(1,0,0,1,-1488.9467047573596,-940) translate(134.30620659722223 21.52777777777778)"/><path d="M-1488.95-908.4a6 6 0 0 1 6-6h339.18a6 6 0 0 1 6 6v64.76a6 6 0 0 1-6 6h-339.18a6 6 0 0 1-6-6z" fill="none"/><use xlink:href="#ad" transform="matrix(1,0,0,1,-1483.9467047573596,-909.4097784850824) translate(29.230251736111143 41.583767361111114)"/><use xlink:href="#ae" transform="matrix(1,0,0,1,-1483.9467047573596,-909.4097784850824) translate(161.82573784722223 41.583767361111114)"/><use xlink:href="#af" transform="matrix(1,0,0,1,-1483.9467047573596,-909.4097784850824) translate(182.38780381944446 41.583767361111114)"/><path d="M-788.47-929.12v32.6a6 6 0 0 1-6 6h-326.92" stroke="#3a414a" fill="none"/><path d="M-788-929.1h-.94v-.52h.95z" stroke="#3a414a" stroke-width=".05" fill="#3a414a"/><path d="M-1136.16-890.5l14.27-4.64v9.27z" stroke="#3a414a" fill="#3a414a"/><path d="M-1488.95-928a12 12 0 0 1 12-12h327.18a12 12 0 0 1 12 12v13.6h-351.18z" stroke="#3a414a" stroke-width="2" fill="#a4a2fc"/><path d="M-1488.95-914.4h351.18v64.76a12 12 0 0 1-12 12h-327.18a12 12 0 0 1-12-12z" stroke="#3a414a" stroke-width="2" fill="#dedeff"/><use xlink:href="#ac" transform="matrix(1,0,0,1,-1488.9467047573596,-940) translate(134.30620659722223 21.52777777777778)"/><path d="M-1488.95-908.4a6 6 0 0 1 6-6h339.18a6 6 0 0 1 6 6v64.76a6 6 0 0 1-6 6h-339.18a6 6 0 0 1-6-6z" fill="none"/><g><use xlink:href="#ad" transform="matrix(1,0,0,1,-1483.9467047573596,-909.4097784850824) translate(29.230251736111143 41.583767361111114)"/><use xlink:href="#ae" transform="matrix(1,0,0,1,-1483.9467047573596,-909.4097784850824) translate(161.82573784722223 41.583767361111114)"/><use xlink:href="#af" transform="matrix(1,0,0,1,-1483.9467047573596,-909.4097784850824) translate(182.38780381944446 41.583767361111114)"/></g><path d="M-788.47-929.12v32.6a6 6 0 0 1-6 6h-326.92" stroke="#3a414a" fill="none"/><path d="M-788-929.1h-.94v-.52h.95z" stroke="#3a414a" stroke-width=".05" fill="#3a414a"/><path d="M-1136.16-890.5l14.27-4.64v9.27z" stroke="#3a414a" fill="#3a414a"/><path d="M-1437-1312.46a6 6 0 0 1 6-6h235.28a6 6 0 0 1 6 6v45.33a6 6 0 0 1-6 6H-1431a6 6 0 0 1-6-6z" stroke="#000" stroke-width="2" fill="#85da8c"/><g><use xlink:href="#ag" transform="matrix(1,0,0,1,-1432.004227522327,-1313.4591015624999) translate(39.019531250000014 33.52777777777778)"/></g><path d="M-1008.5-1094.37h75" stroke="#3a414a" fill="none"/><path d="M-1008.48-1093.9h-.5v-.94h.5z" stroke="#3a414a" stroke-width=".05" fill="#3a414a"/><path d="M-918.73-1094.37l-14.27 4.64v-9.27z" stroke="#3a414a" fill="#3a414a"/><path d="M-640-1607a12 12 0 0 1 12-12h236a12 12 0 0 1 12 12v18.4h-260z" stroke="#3a414a" stroke-width="2" fill="#61d7c7"/><path d="M-640-1588.6h260v79.16a12 12 0 0 1-12 12h-236a12 12 0 0 1-12-12z" stroke="#3a414a" stroke-width="2" fill="#b8f5ed"/><g><use xlink:href="#ah" transform="matrix(1,0,0,1,-640,-1619) translate(28.220486111111114 23.58376736111111)"/><use xlink:href="#ai" transform="matrix(1,0,0,1,-640,-1619) translate(79.67447916666667 23.58376736111111)"/><use xlink:href="#aj" transform="matrix(1,0,0,1,-640,-1619) translate(173.68489583333334 23.58376736111111)"/></g><path d="M-640-1582.37a6 6 0 0 1 6-6h248a6 6 0 0 1 6 6v78.93a6 6 0 0 1-6 6h-248a6 6 0 0 1-6-6z" fill="none"/><g><use xlink:href="#ak" transform="matrix(1,0,0,1,-635,-1583.3739979399409) translate(46.81532118055557 35.13975694444444)"/><use xlink:href="#al" transform="matrix(1,0,0,1,-635,-1583.3739979399409) translate(74.36523437500001 35.13975694444444)"/><use xlink:href="#am" transform="matrix(1,0,0,1,-635,-1583.3739979399409) translate(173.92035590277777 35.13975694444444)"/><use xlink:href="#an" transform="matrix(1,0,0,1,-635,-1583.3739979399409) translate(1.8771701388888857 62.02777777777778)"/><use xlink:href="#ao" transform="matrix(1,0,0,1,-635,-1583.3739979399409) translate(107.36762152777779 62.02777777777778)"/></g><path d="M-640-1607a12 12 0 0 1 12-12h236a12 12 0 0 1 12 12v18.4h-260z" stroke="#3a414a" stroke-width="2" fill="#61d7c7"/><path d="M-640-1588.6h260v79.16a12 12 0 0 1-12 12h-236a12 12 0 0 1-12-12z" stroke="#3a414a" stroke-width="2" fill="#b8f5ed"/><g><use xlink:href="#ah" transform="matrix(1,0,0,1,-640,-1619) translate(28.220486111111114 23.58376736111111)"/><use xlink:href="#ai" transform="matrix(1,0,0,1,-640,-1619) translate(79.67447916666667 23.58376736111111)"/><use xlink:href="#aj" transform="matrix(1,0,0,1,-640,-1619) translate(173.68489583333334 23.58376736111111)"/></g><path d="M-640-1582.37a6 6 0 0 1 6-6h248a6 6 0 0 1 6 6v78.93a6 6 0 0 1-6 6h-248a6 6 0 0 1-6-6z" fill="none"/><g><use xlink:href="#ak" transform="matrix(1,0,0,1,-635,-1583.3739979399409) translate(46.81532118055557 35.13975694444444)"/><use xlink:href="#al" transform="matrix(1,0,0,1,-635,-1583.3739979399409) translate(74.36523437500001 35.13975694444444)"/><use xlink:href="#am" transform="matrix(1,0,0,1,-635,-1583.3739979399409) translate(173.92035590277777 35.13975694444444)"/><use xlink:href="#an" transform="matrix(1,0,0,1,-635,-1583.3739979399409) translate(1.8771701388888857 62.02777777777778)"/><use xlink:href="#ao" transform="matrix(1,0,0,1,-635,-1583.3739979399409) translate(107.36762152777779 62.02777777777778)"/></g><path d="M-986.43-996.32h52.93" stroke="#3a414a" fill="none"/><path d="M-986.42-995.84h-.5v-.95h.5z" stroke="#3a414a" stroke-width=".05" fill="#3a414a"/><path d="M-918.73-996.32l-14.27 4.64v-9.27z" stroke="#3a414a" fill="#3a414a"/><path d="M-428.5-1276.97h22.5a6 6 0 0 1 6 6V-856a6 6 0 0 1-6 6h-690.75a.03.03 0 0 1-.02-.03.03.03 0 0 0-.03-.02h-23.6" stroke="#3a414a" fill="none"/><path d="M-428.5-1276.5h-.5v-.94h.5z" stroke="#3a414a" stroke-width=".05" fill="#3a414a"/><path d="M-1135.16-850.05l14.27-4.64v9.28z" stroke="#3a414a" fill="#3a414a"/><path d="M-1060-1104.13a6 6 0 0 1 6-6h39a6 6 0 0 1 6 6v19.53a6 6 0 0 1-6 6h-39a6 6 0 0 1-6-6z" fill="none"/><g><use xlink:href="#ap" transform="matrix(1,0,0,1,-1055,-1105.1251171875) translate(0 17.46701388888889)"/></g><path d="M-1100-915.07a6 6 0 0 1 6-6h191.15a6 6 0 0 1 6 6v19.52a6 6 0 0 1-6 6H-1094a6 6 0 0 1-6-6z" fill="none"/><g><use xlink:href="#aq" transform="matrix(1,0,0,1,-1095,-916.0691276041667) translate(0 17.46701388888889)"/><use xlink:href="#ar" transform="matrix(1,0,0,1,-1095,-916.0691276041667) translate(71.99652777777779 17.46701388888889)"/><use xlink:href="#y" transform="matrix(1,0,0,1,-1095,-916.0691276041667) translate(156.3888888888889 17.46701388888889)"/></g><path d="M-486.3-1495.94v170" stroke="#3a414a" fill="none"/><path d="M-485.84-1495.92h-.95v-.52h.96z" stroke="#3a414a" stroke-width=".05" fill="#3a414a"/><path d="M-486.3-1311.16l-4.65-14.27h9.27z" stroke="#3a414a" fill="#3a414a"/><path d="M-473.85-1394a6 6 0 0 1 6-6H-386a6 6 0 0 1 6 6v45.33a6 6 0 0 1-6 6h-81.85a6 6 0 0 1-6-6z" fill="none"/><g><use xlink:href="#as" transform="matrix(1,0,0,1,-468.8468055555556,-1395) translate(0 17.560763888888893)"/><use xlink:href="#at" transform="matrix(1,0,0,1,-468.8468055555556,-1395) translate(0 43.373263888888886)"/></g><path d="M-486.35-1243.9v196.6a6 6 0 0 1-6 6h-118.73" stroke="#3a414a" fill="none"/><path d="M-485.88-1243.88h-.95v-.5h.95z" stroke="#3a414a" stroke-width=".05" fill="#3a414a"/><path d="M-625.85-1041.3l14.27-4.64v9.27z" stroke="#3a414a" fill="#3a414a"/><path d="M-618.6-1111.12a6 6 0 0 1 6-6h81.85a6 6 0 0 1 6 6v45.33a6 6 0 0 1-6 6h-81.84a6 6 0 0 1-6-6z" fill="none"/><g><use xlink:href="#as" transform="matrix(1,0,0,1,-613.59375,-1112.121002604167) translate(0 17.560763888888893)"/><use xlink:href="#au" transform="matrix(1,0,0,1,-613.59375,-1112.121002604167) translate(0 43.373263888888886)"/></g><path d="M-618.6-1034a6 6 0 0 1 6-6H-506a6 6 0 0 1 6 6v41.03a6 6 0 0 1-6 6h-106.6a6 6 0 0 1-6-6z" fill="none"/><g><use xlink:href="#av" transform="matrix(1,0,0,1,-613.59375,-1035) translate(0 17.711805555555557)"/><use xlink:href="#ab" transform="matrix(1,0,0,1,-613.59375,-1035) translate(0 39.22222222222222)"/></g><path d="M-1760-1734a6 6 0 0 1 6-6H-26a6 6 0 0 1 6 6v1028a6 6 0 0 1-6 6h-1728a6 6 0 0 1-6-6z" stroke="#000" stroke-opacity="0" stroke-width="2" fill-opacity="0"/><defs><path fill="#fff" d="M783 20c-382 0-661-292-661-764 0-473 279-766 661-766 302 0 548 182 601 489h-190c-42-204-217-313-411-313-268 0-476 208-476 590 0 381 209 588 476 588 195 0 369-110 411-313h190c-52 303-296 489-601 489" id="aw"/><path fill="#fff" d="M613 24c-304 0-509-231-509-576 0-350 205-580 509-580 305 0 511 230 511 580 0 345-206 576-511 576zm0-161c226 0 329-195 329-415 0-222-103-419-329-419-223 0-326 196-326 419 0 220 103 415 326 415" id="ax"/><path fill="#fff" d="M338-670V0H158v-1118h173l1 207c72-158 192-221 342-221 226 0 378 139 378 422V0H872v-695c0-172-96-275-252-275-161 0-282 109-282 300" id="ay"/><path fill="#fff" d="M598-1118v154H368v674c0 100 37 144 132 144 23 0 62-6 92-12L629-6c-37 13-88 20-134 20-193 0-307-107-307-290v-688H20v-154h168v-266h180v266h230" id="az"/><path fill="#fff" d="M628 24c-324 0-524-230-524-574 0-343 198-582 503-582 237 0 487 146 487 559v75H286c9 234 145 362 343 362 132 0 231-58 273-172l174 48C1024-91 857 24 628 24zM287-650h624c-17-190-120-322-304-322-192 0-309 151-320 322" id="aA"/><path fill="#fff" d="M158 0v-1118h174v172h12c41-113 157-188 290-188 26 0 70 2 91 3v181c-11-2-60-10-108-10-161 0-279 109-279 260V0H158" id="aB"/><path fill="#fff" d="M158 0v-1118h180V0H158zm91-1301c-68 0-125-53-125-119s57-119 125-119c69 0 126 53 126 119s-57 119-126 119" id="aC"/><path fill="#fff" d="M126 0v-134l627-806v-11H146v-167h839v143L376-178v11h629V0H126" id="aD"/><path fill="#fff" d="M577 24c-279 0-473-224-473-580 0-354 195-576 474-576 218 0 287 134 324 193h14v-551h180V0H922v-173h-20C865-111 790 24 577 24zm27-161c203 0 314-172 314-421 0-247-108-413-314-413-212 0-317 181-317 413 0 235 108 421 317 421" id="aE"/><g id="b"><use transform="matrix(0.010850694444444444,0,0,0.010850694444444444,0,0)" xlink:href="#aw"/><use transform="matrix(0.010850694444444444,0,0,0.010850694444444444,16.23263888888889,0)" xlink:href="#ax"/><use transform="matrix(0.010850694444444444,0,0,0.010850694444444444,29.557291666666664,0)" xlink:href="#ay"/><use transform="matrix(0.010850694444444444,0,0,0.010850694444444444,42.68663194444444,0)" xlink:href="#az"/><use transform="matrix(0.010850694444444444,0,0,0.010850694444444444,49.73958333333333,0)" xlink:href="#aA"/><use transform="matrix(0.010850694444444444,0,0,0.010850694444444444,62.6953125,0)" xlink:href="#ay"/><use transform="matrix(0.010850694444444444,0,0,0.010850694444444444,75.82465277777777,0)" xlink:href="#aA"/><use transform="matrix(0.010850694444444444,0,0,0.010850694444444444,88.78038194444444,0)" xlink:href="#aB"/><use transform="matrix(0.010850694444444444,0,0,0.010850694444444444,97.49348958333334,0)" xlink:href="#aC"/><use transform="matrix(0.010850694444444444,0,0,0.010850694444444444,102.8754340277778,0)" xlink:href="#aD"/><use transform="matrix(0.010850694444444444,0,0,0.010850694444444444,114.82204861111113,0)" xlink:href="#aA"/><use transform="matrix(0.010850694444444444,0,0,0.010850694444444444,127.7777777777778,0)" xlink:href="#aE"/></g><path fill="#fff" d="M180 0v-1490h908v168H370v486h669v168H370v500h727V0H180" id="aF"/><path fill="#fff" d="M481 0L54-1118h197c107 314 236 620 325 951 87-331 217-637 324-951h197L670 0H481" id="aG"/><path fill="#fff" d="M158 0v-1118h175l1 205c55-151 181-225 313-225 147 0 245 90 285 228 53-141 190-228 352-228 194 0 352 125 352 384V0h-181v-749c0-161-105-225-225-225-151 0-243 103-243 244V0H807v-767c0-124-93-207-219-207-131 0-250 92-250 270V0H158" id="aH"/><g id="c"><use transform="matrix(0.010850694444444444,0,0,0.010850694444444444,0,0)" xlink:href="#aF"/><use transform="matrix(0.010850694444444444,0,0,0.010850694444444444,13.35720486111111,0)" xlink:href="#ay"/><use transform="matrix(0.010850694444444444,0,0,0.010850694444444444,26.161024305555554,0)" xlink:href="#aG"/><use transform="matrix(0.010850694444444444,0,0,0.010850694444444444,38.65017361111111,0)" xlink:href="#aC"/><use transform="matrix(0.010850694444444444,0,0,0.010850694444444444,44.03211805555555,0)" xlink:href="#aB"/><use transform="matrix(0.010850694444444444,0,0,0.010850694444444444,52.0290798611111,0)" xlink:href="#ax"/><use transform="matrix(0.010850694444444444,0,0,0.010850694444444444,65.35373263888887,0)" xlink:href="#ay"/><use transform="matrix(0.010850694444444444,0,0,0.010850694444444444,78.48307291666664,0)" xlink:href="#aH"/><use transform="matrix(0.010850694444444444,0,0,0.010850694444444444,97.94921874999997,0)" xlink:href="#aA"/><use transform="matrix(0.010850694444444444,0,0,0.010850694444444444,110.90494791666664,0)" xlink:href="#ay"/><use transform="matrix(0.010850694444444444,0,0,0.010850694444444444,124.03428819444441,0)" xlink:href="#az"/></g><path fill="#fff" d="M218-607c0-325 108-727 258-974h175c-155 315-250 682-250 974 0 265 78 531 250 886H476C306-10 218-315 218-607" id="aI"/><path fill="#fff" d="M180 0v-1490h190c0 262 1 526-3 784 217-279 467-523 702-784h249L716-845 1319 0h-225L585-716 370-489V0H180" id="aJ"/><path fill="#fff" d="M537 14c-226 0-379-139-379-422v-710h180v695c0 172 97 275 253 275 160 0 281-109 281-300v-670h181V0H879v-209C806-46 684 14 537 14" id="aK"/><path fill="#fff" d="M677 24c-213 0-288-135-325-197h-20V0H158v-1490h180v551h14c37-59 106-193 324-193 279 0 474 222 474 576 0 356-194 580-473 580zm-27-161c209 0 317-186 317-421 0-232-105-413-317-413-206 0-314 166-314 413 0 249 111 421 314 421" id="aL"/><path fill="#fff" d="M538 24C308 24 148-78 108-271l171-41c32 123 123 178 257 178 156 0 256-77 256-169 0-77-54-128-164-154l-186-44c-203-48-300-148-300-305 0-192 176-326 414-326 230 0 351 112 402 269l-163 42c-31-80-94-158-238-158-133 0-233 69-233 162 0 83 57 129 188 160l169 40c203 48 298 149 298 302 0 196-179 339-441 339" id="aM"/><path fill="#fff" d="M96 279C273-86 346-350 346-607c0-292-95-659-250-974h175c150 246 258 650 258 974 0 297-91 602-258 886H96" id="aN"/><g id="d"><use transform="matrix(0.010850694444444444,0,0,0.010850694444444444,0,0)" xlink:href="#aI"/><use transform="matrix(0.010850694444444444,0,0,0.010850694444444444,8.10546875,0)" xlink:href="#aJ"/><use transform="matrix(0.010850694444444444,0,0,0.010850694444444444,22.28732638888889,0)" xlink:href="#aK"/><use transform="matrix(0.010850694444444444,0,0,0.010850694444444444,35.427517361111114,0)" xlink:href="#aL"/><use transform="matrix(0.010850694444444444,0,0,0.010850694444444444,49.03428819444444,0)" xlink:href="#aA"/><use transform="matrix(0.010850694444444444,0,0,0.010850694444444444,61.99001736111111,0)" xlink:href="#aB"/><use transform="matrix(0.010850694444444444,0,0,0.010850694444444444,70.703125,0)" xlink:href="#ay"/><use transform="matrix(0.010850694444444444,0,0,0.010850694444444444,83.83246527777777,0)" xlink:href="#aA"/><use transform="matrix(0.010850694444444444,0,0,0.010850694444444444,96.78819444444444,0)" xlink:href="#az"/><use transform="matrix(0.010850694444444444,0,0,0.010850694444444444,103.84114583333333,0)" xlink:href="#aA"/><use transform="matrix(0.010850694444444444,0,0,0.010850694444444444,116.796875,0)" xlink:href="#aM"/><use transform="matrix(0.010850694444444444,0,0,0.010850694444444444,128.52647569444446,0)" xlink:href="#aN"/></g><filter id="a" filterUnits="objectBoundingBox" x="-.01" y="-.01" width="1.02" height="1.03"><feOffset result="offOut" in="SourceAlpha" dy="6"/><feGaussianBlur result="blurOut" in="offOut" stdDeviation="5"/><feColorMatrix result="colorOut" in="blurOut" values="0 0 0 0 0 0 0 0 0 0 0 0 0 0 0 0 0 0 0.5019607843137255 0"/><feBlend in="SourceGraphic" in2="colorOut"/></filter><path d="M657 26c-323 0-524-166-541-416h195c15 169 171 246 346 246 202 0 356-106 356-265 5-203-294-238-475-293-239-73-380-191-380-389 0-252 224-419 512-419 294 0 499 171 508 396H992c-17-145-151-228-328-228-193 0-321 102-321 242 0 156 175 211 284 241l149 41c160 44 422 134 422 412 0 244-197 432-541 432" id="aO"/><path d="M471 26C259 26 90-98 90-318c0-256 228-303 435-329 202-27 287-16 287-108 0-139-79-219-234-219-161 0-248 86-283 164l-173-57c86-203 278-265 451-265 150 0 419 46 419 395V0H815v-152h-12C765-73 660 26 471 26zm31-159c199 0 310-134 310-271v-155c-30 35-226 55-295 64-131 17-246 59-246 186 0 116 97 176 231 176" id="aP"/><path d="M158 0v-1118h175l1 205c55-151 181-225 313-225 147 0 245 90 285 228 53-141 190-228 352-228 194 0 352 125 352 384V0h-181v-749c0-161-105-225-225-225-151 0-243 103-243 244V0H807v-767c0-124-93-207-219-207-131 0-250 92-250 270V0H158" id="aQ"/><path d="M158 418v-1536h174v179h20c37-59 106-193 324-193 279 0 474 222 474 576 0 356-194 580-473 580-213 0-288-135-325-197h-14v591H158zm492-555c209 0 317-186 317-421 0-232-105-413-317-413-206 0-314 166-314 413 0 249 111 421 314 421" id="aR"/><path d="M338-1490V0H158v-1490h180" id="aS"/><path d="M628 24c-324 0-524-230-524-574 0-343 198-582 503-582 237 0 487 146 487 559v75H286c9 234 145 362 343 362 132 0 231-58 273-172l174 48C1024-91 857 24 628 24zM287-650h624c-17-190-120-322-304-322-192 0-309 151-320 322" id="aT"/><g id="e"><use transform="matrix(0.010850694444444444,0,0,0.010850694444444444,0,0)" xlink:href="#aO"/><use transform="matrix(0.010850694444444444,0,0,0.010850694444444444,14.2578125,0)" xlink:href="#aP"/><use transform="matrix(0.010850694444444444,0,0,0.010850694444444444,26.73611111111111,0)" xlink:href="#aQ"/><use transform="matrix(0.010850694444444444,0,0,0.010850694444444444,46.20225694444444,0)" xlink:href="#aR"/><use transform="matrix(0.010850694444444444,0,0,0.010850694444444444,59.80902777777778,0)" xlink:href="#aS"/><use transform="matrix(0.010850694444444444,0,0,0.010850694444444444,65.19097222222221,0)" xlink:href="#aT"/></g><path d="M52 0l541-1490h220L1361 0h-200l-149-416H398L254 0H52zm404-582h497c-103-290-145-390-251-756-108 377-145 460-246 756" id="aU"/><path d="M158 0v-1118h180V0H158zm91-1301c-68 0-125-53-125-119s57-119 125-119c69 0 126 53 126 119s-57 119-126 119" id="aV"/><path d="M613 24c-304 0-509-231-509-576 0-350 205-580 509-580 216 0 392 114 453 309l-173 49c-33-115-133-197-280-197-223 0-326 196-326 419 0 220 103 415 326 415 150 0 252-85 285-206l172 49C1010-95 832 24 613 24" id="aW"/><path d="M598-1118v154H368v674c0 100 37 144 132 144 23 0 62-6 92-12L629-6c-37 13-88 20-134 20-193 0-307-107-307-290v-688H20v-154h168v-266h180v266h230" id="aX"/><path d="M613 24c-304 0-509-231-509-576 0-350 205-580 509-580 305 0 511 230 511 580 0 345-206 576-511 576zm0-161c226 0 329-195 329-415 0-222-103-419-329-419-223 0-326 196-326 419 0 220 103 415 326 415" id="aY"/><path d="M338-670V0H158v-1118h173l1 207c72-158 192-221 342-221 226 0 378 139 378 422V0H872v-695c0-172-96-275-252-275-161 0-282 109-282 300" id="aZ"/><g id="f"><use transform="matrix(0.010850694444444444,0,0,0.010850694444444444,0,0)" xlink:href="#aU"/><use transform="matrix(0.010850694444444444,0,0,0.010850694444444444,15.33203125,0)" xlink:href="#aR"/><use transform="matrix(0.010850694444444444,0,0,0.010850694444444444,28.938802083333332,0)" xlink:href="#aR"/><use transform="matrix(0.010850694444444444,0,0,0.010850694444444444,42.545572916666664,0)" xlink:href="#aS"/><use transform="matrix(0.010850694444444444,0,0,0.010850694444444444,47.92751736111111,0)" xlink:href="#aV"/><use transform="matrix(0.010850694444444444,0,0,0.010850694444444444,53.30946180555556,0)" xlink:href="#aW"/><use transform="matrix(0.010850694444444444,0,0,0.010850694444444444,66.22178819444443,0)" xlink:href="#aP"/><use transform="matrix(0.010850694444444444,0,0,0.010850694444444444,78.70008680555554,0)" xlink:href="#aX"/><use transform="matrix(0.010850694444444444,0,0,0.010850694444444444,85.97005208333331,0)" xlink:href="#aV"/><use transform="matrix(0.010850694444444444,0,0,0.010850694444444444,91.35199652777776,0)" xlink:href="#aY"/><use transform="matrix(0.010850694444444444,0,0,0.010850694444444444,104.67664930555553,0)" xlink:href="#aZ"/></g><path d="M789 20c-398 0-667-293-667-764 0-473 273-766 655-766 315 0 558 198 612 487h-196c-61-191-204-311-415-311-262 0-471 207-471 590 0 380 208 588 482 588 249 0 420-165 425-427H828v-166h572v163c0 370-256 606-611 606" id="ba"/><path d="M158 0v-1118h174v172h12c41-113 157-188 290-188 26 0 70 2 91 3v181c-11-2-60-10-108-10-161 0-279 109-279 260V0H158" id="bb"/><path d="M678-1118v154H420V0H240v-964H20v-154h220v-149c0-194 155-293 318-293 85 0 141 18 168 30l-50 154c-19-6-47-17-97-17-111 0-159 58-159 166v109h258" id="bc"/><g id="g"><use transform="matrix(0.010850694444444444,0,0,0.010850694444444444,0,0)" xlink:href="#ba"/><use transform="matrix(0.010850694444444444,0,0,0.010850694444444444,16.57986111111111,0)" xlink:href="#bb"/><use transform="matrix(0.010850694444444444,0,0,0.010850694444444444,24.94574652777778,0)" xlink:href="#aP"/><use transform="matrix(0.010850694444444444,0,0,0.010850694444444444,37.424045138888886,0)" xlink:href="#bc"/><use transform="matrix(0.010850694444444444,0,0,0.010850694444444444,45.30164930555556,0)" xlink:href="#aP"/><use transform="matrix(0.010850694444444444,0,0,0.010850694444444444,57.77994791666667,0)" xlink:href="#aZ"/><use transform="matrix(0.010850694444444444,0,0,0.010850694444444444,70.90928819444444,0)" xlink:href="#aP"/></g><path d="M140 405l46-156c120 36 205 19 263-150l32-93L54-1118h197c107 313 237 620 324 950 87-331 219-637 326-950h196L606 167c-68 178-176 259-334 259-64 0-113-12-132-21" id="bd"/><g id="h"><use transform="matrix(0.010850694444444444,0,0,0.010850694444444444,0,0)" xlink:href="#aU"/><use transform="matrix(0.010850694444444444,0,0,0.010850694444444444,15.33203125,0)" xlink:href="#aS"/><use transform="matrix(0.010850694444444444,0,0,0.010850694444444444,20.713975694444443,0)" xlink:href="#aS"/><use transform="matrix(0.010850694444444444,0,0,0.010850694444444444,26.09592013888889,0)" xlink:href="#aY"/><use transform="matrix(0.010850694444444444,0,0,0.010850694444444444,38.986545138888886,0)" xlink:href="#bd"/></g><path d="M98-1322v-168h1126v168H757V0H567v-1322H98" id="be"/><g id="i"><use transform="matrix(0.010850694444444444,0,0,0.010850694444444444,0,0)" xlink:href="#be"/><use transform="matrix(0.010850694444444444,0,0,0.010850694444444444,12.608506944444445,0)" xlink:href="#aT"/><use transform="matrix(0.010850694444444444,0,0,0.010850694444444444,25.56423611111111,0)" xlink:href="#aS"/><use transform="matrix(0.010850694444444444,0,0,0.010850694444444444,30.94618055555556,0)" xlink:href="#aT"/><use transform="matrix(0.010850694444444444,0,0,0.010850694444444444,43.90190972222222,0)" xlink:href="#aQ"/><use transform="matrix(0.010850694444444444,0,0,0.010850694444444444,63.36805555555555,0)" xlink:href="#aT"/><use transform="matrix(0.010850694444444444,0,0,0.010850694444444444,76.32378472222223,0)" xlink:href="#aX"/><use transform="matrix(0.010850694444444444,0,0,0.010850694444444444,83.59375,0)" xlink:href="#bb"/><use transform="matrix(0.010850694444444444,0,0,0.010850694444444444,92.3068576388889,0)" xlink:href="#bd"/></g><path d="M128 359l88-567h206L266 359H128" id="bf"/><g id="j"><use transform="matrix(0.010850694444444444,0,0,0.010850694444444444,0,0)" xlink:href="#aW"/><use transform="matrix(0.010850694444444444,0,0,0.010850694444444444,12.6953125,0)" xlink:href="#aY"/><use transform="matrix(0.010850694444444444,0,0,0.010850694444444444,26.01996527777778,0)" xlink:href="#aS"/><use transform="matrix(0.010850694444444444,0,0,0.010850694444444444,31.40190972222222,0)" xlink:href="#aS"/><use transform="matrix(0.010850694444444444,0,0,0.010850694444444444,36.783854166666664,0)" xlink:href="#aT"/><use transform="matrix(0.010850694444444444,0,0,0.010850694444444444,49.73958333333333,0)" xlink:href="#aW"/><use transform="matrix(0.010850694444444444,0,0,0.010850694444444444,62.43489583333333,0)" xlink:href="#aX"/><use transform="matrix(0.010850694444444444,0,0,0.010850694444444444,69.7048611111111,0)" xlink:href="#aV"/><use transform="matrix(0.010850694444444444,0,0,0.010850694444444444,75.08680555555554,0)" xlink:href="#aY"/><use transform="matrix(0.010850694444444444,0,0,0.010850694444444444,88.41145833333331,0)" xlink:href="#aZ"/><use transform="matrix(0.010850694444444444,0,0,0.010850694444444444,101.54079861111109,0)" xlink:href="#bf"/></g><path d="M538 24C308 24 148-78 108-271l171-41c32 123 123 178 257 178 156 0 256-77 256-169 0-77-54-128-164-154l-186-44c-203-48-300-148-300-305 0-192 176-326 414-326 230 0 351 112 402 269l-163 42c-31-80-94-158-238-158-133 0-233 69-233 162 0 83 57 129 188 160l169 40c203 48 298 149 298 302 0 196-179 339-441 339" id="bg"/><path d="M611 442c-248 0-391-105-460-228l146-94c47 65 117 165 314 165 178 0 307-82 307-266v-224h-17C863-141 792-18 576-18c-268 0-472-195-472-546 0-346 197-568 476-568 216 0 288 133 326 193h17v-179h175V29c0 289-215 413-487 413zm-5-620c203 0 314-146 314-390 0-237-108-403-314-403-213 0-319 180-319 403 0 230 109 390 319 390" id="bh"/><g id="k"><use transform="matrix(0.010850694444444444,0,0,0.010850694444444444,0,0)" xlink:href="#aR"/><use transform="matrix(0.010850694444444444,0,0,0.010850694444444444,13.606770833333332,0)" xlink:href="#bb"/><use transform="matrix(0.010850694444444444,0,0,0.010850694444444444,21.603732638888886,0)" xlink:href="#aY"/><use transform="matrix(0.010850694444444444,0,0,0.010850694444444444,34.928385416666664,0)" xlink:href="#aW"/><use transform="matrix(0.010850694444444444,0,0,0.010850694444444444,47.623697916666664,0)" xlink:href="#aT"/><use transform="matrix(0.010850694444444444,0,0,0.010850694444444444,60.57942708333333,0)" xlink:href="#bg"/><use transform="matrix(0.010850694444444444,0,0,0.010850694444444444,72.30902777777777,0)" xlink:href="#bg"/><use transform="matrix(0.010850694444444444,0,0,0.010850694444444444,84.03862847222221,0)" xlink:href="#aV"/><use transform="matrix(0.010850694444444444,0,0,0.010850694444444444,89.42057291666666,0)" xlink:href="#aZ"/><use transform="matrix(0.010850694444444444,0,0,0.010850694444444444,102.54991319444441,0)" xlink:href="#bh"/><use transform="matrix(0.010850694444444444,0,0,0.010850694444444444,116.17838541666666,0)" xlink:href="#bf"/></g><path d="M409 0L70-1118h191c89 329 165 560 243 925 75-353 154-601 240-925h192c85 325 161 564 235 922 77-354 157-598 244-922h191L1267 0h-179c-86-307-176-590-250-913C763-588 675-308 588 0H409" id="bi"/><path d="M577 24c-279 0-473-224-473-580 0-354 195-576 474-576 218 0 287 134 324 193h14v-551h180V0H922v-173h-20C865-111 790 24 577 24zm27-161c203 0 314-172 314-421 0-247-108-413-314-413-212 0-317 181-317 413 0 235 108 421 317 421" id="bj"/><g id="l"><use transform="matrix(0.010850694444444444,0,0,0.010850694444444444,0,0)" xlink:href="#bc"/><use transform="matrix(0.010850694444444444,0,0,0.010850694444444444,7.573784722222222,0)" xlink:href="#aY"/><use transform="matrix(0.010850694444444444,0,0,0.010850694444444444,20.8984375,0)" xlink:href="#bb"/><use transform="matrix(0.010850694444444444,0,0,0.010850694444444444,29.44878472222222,0)" xlink:href="#bi"/><use transform="matrix(0.010850694444444444,0,0,0.010850694444444444,47.63454861111111,0)" xlink:href="#aP"/><use transform="matrix(0.010850694444444444,0,0,0.010850694444444444,60.11284722222223,0)" xlink:href="#bb"/><use transform="matrix(0.010850694444444444,0,0,0.010850694444444444,68.10980902777779,0)" xlink:href="#bj"/><use transform="matrix(0.010850694444444444,0,0,0.010850694444444444,81.71657986111111,0)" xlink:href="#aV"/><use transform="matrix(0.010850694444444444,0,0,0.010850694444444444,87.09852430555556,0)" xlink:href="#aZ"/><use transform="matrix(0.010850694444444444,0,0,0.010850694444444444,100.22786458333333,0)" xlink:href="#bh"/></g><path d="M763 24c-353 0-583-224-583-531v-983h190v968c0 214 149 370 393 370 243 0 391-156 391-370v-968h190v983c0 307-230 531-581 531" id="bk"/><g id="m"><use transform="matrix(0.010850694444444444,0,0,0.010850694444444444,0,0)" xlink:href="#bk"/><use transform="matrix(0.010850694444444444,0,0,0.010850694444444444,16.536458333333332,0)" xlink:href="#bg"/><use transform="matrix(0.010850694444444444,0,0,0.010850694444444444,28.266059027777775,0)" xlink:href="#aT"/><use transform="matrix(0.010850694444444444,0,0,0.010850694444444444,41.22178819444444,0)" xlink:href="#bb"/></g><path d="M692-1560L212 224H46l480-1784h166" id="bl"/><use transform="matrix(0.010850694444444444,0,0,0.010850694444444444,0,0)" xlink:href="#bl" id="n"/><path d="M158 0v-1490h180v865h22l478-493h223L593-638 1096 0H865L456-523 338-412V0H158" id="bm"/><path d="M646 20c-249 0-524-159-524-708 0-524 209-822 547-822 250 0 431 161 467 395H950c-33-129-126-227-281-227-229 0-367 208-367 566h12c80-124 212-198 367-198 255 0 467 205 467 493 0 278-198 501-502 501zm0-167c179 0 318-148 318-334 0-182-133-328-313-328-181 0-322 156-322 330 0 176 134 332 317 332" id="bn"/><g id="o"><use transform="matrix(0.010850694444444444,0,0,0.010850694444444444,0,0)" xlink:href="#bm"/><use transform="matrix(0.010850694444444444,0,0,0.010850694444444444,12.196180555555555,0)" xlink:href="#bn"/></g><path d="M180 0v-1490h190v1322h690V0H180" id="bo"/><g id="q"><use transform="matrix(0.010850694444444444,0,0,0.010850694444444444,0,0)" xlink:href="#bo"/><use transform="matrix(0.010850694444444444,0,0,0.010850694444444444,12.565104166666666,0)" xlink:href="#aY"/><use transform="matrix(0.010850694444444444,0,0,0.010850694444444444,26.106770833333332,0)" xlink:href="#aP"/><use transform="matrix(0.010850694444444444,0,0,0.010850694444444444,38.58506944444444,0)" xlink:href="#bj"/></g><g id="r"><use transform="matrix(0.010850694444444444,0,0,0.010850694444444444,0,0)" xlink:href="#bh"/><use transform="matrix(0.010850694444444444,0,0,0.010850694444444444,13.628472222222221,0)" xlink:href="#aT"/><use transform="matrix(0.010850694444444444,0,0,0.010850694444444444,26.58420138888889,0)" xlink:href="#aZ"/><use transform="matrix(0.010850694444444444,0,0,0.010850694444444444,39.713541666666664,0)" xlink:href="#aT"/><use transform="matrix(0.010850694444444444,0,0,0.010850694444444444,52.66927083333333,0)" xlink:href="#bb"/><use transform="matrix(0.010850694444444444,0,0,0.010850694444444444,61.035156249999986,0)" xlink:href="#aP"/><use transform="matrix(0.010850694444444444,0,0,0.010850694444444444,73.5134548611111,0)" xlink:href="#aX"/><use transform="matrix(0.010850694444444444,0,0,0.010850694444444444,80.56640624999999,0)" xlink:href="#aY"/><use transform="matrix(0.010850694444444444,0,0,0.010850694444444444,93.89105902777776,0)" xlink:href="#bb"/></g><path d="M180 0v-1490h190v644h782v-644h190V0h-190v-678H370V0H180" id="bp"/><path d="M180 0v-1490h510c348 0 508 209 508 474 0 266-160 477-507 477H370V0H180zm190-706h312c236 0 327-133 327-310 0-176-91-307-329-307H370v617" id="bq"/><g id="s"><use transform="matrix(0.008680555555555556,0,0,0.008680555555555556,0,0)" xlink:href="#bp"/><use transform="matrix(0.008680555555555556,0,0,0.008680555555555556,13.211805555555555,0)" xlink:href="#be"/><use transform="matrix(0.008680555555555556,0,0,0.008680555555555556,24.6875,0)" xlink:href="#be"/><use transform="matrix(0.008680555555555556,0,0,0.008680555555555556,36.16319444444444,0)" xlink:href="#bq"/></g><path d="M1096 418H916v-591h-14C865-111 790 24 577 24c-279 0-473-224-473-580 0-354 195-576 474-576 218 0 287 134 324 193h20v-179h174V418zM604-137c203 0 314-172 314-421 0-247-108-413-314-413-212 0-317 181-317 413 0 235 108 421 317 421" id="br"/><path d="M537 14c-226 0-379-139-379-422v-710h180v695c0 172 97 275 253 275 160 0 281-109 281-300v-670h181V0H879v-209C806-46 684 14 537 14" id="bs"/><g id="t"><use transform="matrix(0.008680555555555556,0,0,0.008680555555555556,0,0)" xlink:href="#bb"/><use transform="matrix(0.008680555555555556,0,0,0.008680555555555556,6.397569444444445,0)" xlink:href="#aT"/><use transform="matrix(0.008680555555555556,0,0,0.008680555555555556,16.76215277777778,0)" xlink:href="#br"/><use transform="matrix(0.008680555555555556,0,0,0.008680555555555556,27.647569444444446,0)" xlink:href="#bs"/><use transform="matrix(0.008680555555555556,0,0,0.008680555555555556,38.15972222222223,0)" xlink:href="#aT"/><use transform="matrix(0.008680555555555556,0,0,0.008680555555555556,48.524305555555564,0)" xlink:href="#bg"/><use transform="matrix(0.008680555555555556,0,0,0.008680555555555556,57.90798611111112,0)" xlink:href="#aX"/><use transform="matrix(0.008680555555555556,0,0,0.008680555555555556,63.55034722222223,0)" xlink:href="#bg"/></g><use transform="matrix(0.008680555555555556,0,0,0.008680555555555556,0,0)" xlink:href="#bl" id="u"/><g id="v"><use transform="matrix(0.008680555555555556,0,0,0.008680555555555556,0,0)" xlink:href="#bo"/><use transform="matrix(0.008680555555555556,0,0,0.008680555555555556,10.052083333333334,0)" xlink:href="#aY"/><use transform="matrix(0.008680555555555556,0,0,0.008680555555555556,20.885416666666668,0)" xlink:href="#aP"/><use transform="matrix(0.008680555555555556,0,0,0.008680555555555556,30.868055555555557,0)" xlink:href="#bj"/></g><g id="w"><use transform="matrix(0.008680555555555556,0,0,0.008680555555555556,0,0)" xlink:href="#aX"/><use transform="matrix(0.008680555555555556,0,0,0.008680555555555556,5.815972222222222,0)" xlink:href="#bb"/><use transform="matrix(0.008680555555555556,0,0,0.008680555555555556,12.508680555555559,0)" xlink:href="#aP"/><use transform="matrix(0.008680555555555556,0,0,0.008680555555555556,22.491319444444446,0)" xlink:href="#bc"/><use transform="matrix(0.008680555555555556,0,0,0.008680555555555556,28.37673611111111,0)" xlink:href="#bc"/><use transform="matrix(0.008680555555555556,0,0,0.008680555555555556,34.95659722222223,0)" xlink:href="#aV"/><use transform="matrix(0.008680555555555556,0,0,0.008680555555555556,39.262152777777786,0)" xlink:href="#aW"/></g><g id="x"><use transform="matrix(0.008680555555555556,0,0,0.008680555555555556,0,0)" xlink:href="#be"/><use transform="matrix(0.008680555555555556,0,0,0.008680555555555556,10.086805555555555,0)" xlink:href="#aT"/><use transform="matrix(0.008680555555555556,0,0,0.008680555555555556,20.45138888888889,0)" xlink:href="#aS"/><use transform="matrix(0.008680555555555556,0,0,0.008680555555555556,24.756944444444443,0)" xlink:href="#aT"/><use transform="matrix(0.008680555555555556,0,0,0.008680555555555556,35.12152777777778,0)" xlink:href="#aQ"/><use transform="matrix(0.008680555555555556,0,0,0.008680555555555556,50.69444444444445,0)" xlink:href="#aT"/><use transform="matrix(0.008680555555555556,0,0,0.008680555555555556,61.05902777777778,0)" xlink:href="#aX"/><use transform="matrix(0.008680555555555556,0,0,0.008680555555555556,66.875,0)" xlink:href="#bb"/><use transform="matrix(0.008680555555555556,0,0,0.008680555555555556,73.8454861111111,0)" xlink:href="#bd"/></g><g id="y"><use transform="matrix(0.008680555555555556,0,0,0.008680555555555556,0,0)" xlink:href="#bj"/><use transform="matrix(0.008680555555555556,0,0,0.008680555555555556,10.885416666666668,0)" xlink:href="#aP"/><use transform="matrix(0.008680555555555556,0,0,0.008680555555555556,20.868055555555557,0)" xlink:href="#aX"/><use transform="matrix(0.008680555555555556,0,0,0.008680555555555556,26.770833333333336,0)" xlink:href="#aP"/></g><path d="M180 0v-1490h270l367 940c28 72 75 218 110 339 35-117 81-264 110-339l362-940h271V0h-187c2-448-5-837 7-1287-157 497-311 829-483 1287H842C666-458 514-784 354-1284c12 438 5 843 7 1284H180" id="bt"/><path d="M783 20c-382 0-661-292-661-764 0-473 279-766 661-766 302 0 548 182 601 489h-190c-42-204-217-313-411-313-268 0-476 208-476 590 0 381 209 588 476 588 195 0 369-110 411-313h190c-52 303-296 489-601 489" id="bu"/><g id="z"><use transform="matrix(0.010850694444444444,0,0,0.010850694444444444,0,0)" xlink:href="#bt"/><use transform="matrix(0.010850694444444444,0,0,0.010850694444444444,20.07378472222222,0)" xlink:href="#bu"/><use transform="matrix(0.010850694444444444,0,0,0.010850694444444444,36.306423611111114,0)" xlink:href="#bq"/></g><path d="M481 0L54-1118h197c107 314 236 620 325 951 87-331 217-637 324-951h197L670 0H481" id="bv"/><g id="A"><use transform="matrix(0.010850694444444444,0,0,0.010850694444444444,0,0)" xlink:href="#bg"/><use transform="matrix(0.010850694444444444,0,0,0.010850694444444444,11.729600694444445,0)" xlink:href="#aT"/><use transform="matrix(0.010850694444444444,0,0,0.010850694444444444,24.68532986111111,0)" xlink:href="#bb"/><use transform="matrix(0.010850694444444444,0,0,0.010850694444444444,33.3984375,0)" xlink:href="#bv"/><use transform="matrix(0.010850694444444444,0,0,0.010850694444444444,45.45355902777778,0)" xlink:href="#aT"/><use transform="matrix(0.010850694444444444,0,0,0.010850694444444444,58.40928819444444,0)" xlink:href="#bb"/></g><path fill="#fff" d="M65 0l393-574-370-544h210c88 136 192 297 267 435 67-142 176-302 264-435h206L661-564 1053 0H844c-94-144-206-310-287-458C484-308 366-142 273 0H65" id="bw"/><path fill="#fff" d="M471 26C259 26 90-98 90-318c0-256 228-303 435-329 202-27 287-16 287-108 0-139-79-219-234-219-161 0-248 86-283 164l-173-57c86-203 278-265 451-265 150 0 419 46 419 395V0H815v-152h-12C765-73 660 26 471 26zm31-159c199 0 310-134 310-271v-155c-30 35-226 55-295 64-131 17-246 59-246 186 0 116 97 176 231 176" id="bx"/><path fill="#fff" d="M338-1490V0H158v-1490h180" id="by"/><g id="B"><use transform="matrix(0.010850694444444444,0,0,0.010850694444444444,0,0)" xlink:href="#aF"/><use transform="matrix(0.010850694444444444,0,0,0.010850694444444444,13.35720486111111,0)" xlink:href="#bw"/><use transform="matrix(0.010850694444444444,0,0,0.010850694444444444,25.92230902777778,0)" xlink:href="#az"/><use transform="matrix(0.010850694444444444,0,0,0.010850694444444444,32.975260416666664,0)" xlink:href="#aA"/><use transform="matrix(0.010850694444444444,0,0,0.010850694444444444,45.93098958333333,0)" xlink:href="#aB"/><use transform="matrix(0.010850694444444444,0,0,0.010850694444444444,54.64409722222221,0)" xlink:href="#ay"/><use transform="matrix(0.010850694444444444,0,0,0.010850694444444444,67.77343749999999,0)" xlink:href="#bx"/><use transform="matrix(0.010850694444444444,0,0,0.010850694444444444,80.2517361111111,0)" xlink:href="#by"/></g><path fill="#fff" d="M52 0l541-1490h220L1361 0h-200l-149-416H398L254 0H52zm404-582h497c-103-290-145-390-251-756-108 377-145 460-246 756" id="bz"/><path fill="#fff" d="M370-1490V0H180v-1490h190" id="bA"/><g id="C"><use transform="matrix(0.010850694444444444,0,0,0.010850694444444444,0,0)" xlink:href="#bz"/><use transform="matrix(0.010850694444444444,0,0,0.010850694444444444,15.33203125,0)" xlink:href="#bA"/></g><path fill="#fff" d="M657 26c-323 0-524-166-541-416h195c15 169 171 246 346 246 202 0 356-106 356-265 5-203-294-238-475-293-239-73-380-191-380-389 0-252 224-419 512-419 294 0 499 171 508 396H992c-17-145-151-228-328-228-193 0-321 102-321 242 0 156 175 211 284 241l149 41c160 44 422 134 422 412 0 244-197 432-541 432" id="bB"/><path fill="#fff" d="M613 24c-304 0-509-231-509-576 0-350 205-580 509-580 216 0 392 114 453 309l-173 49c-33-115-133-197-280-197-223 0-326 196-326 419 0 220 103 415 326 415 150 0 252-85 285-206l172 49C1010-95 832 24 613 24" id="bC"/><g id="D"><use transform="matrix(0.010850694444444444,0,0,0.010850694444444444,0,0)" xlink:href="#bB"/><use transform="matrix(0.010850694444444444,0,0,0.010850694444444444,14.2578125,0)" xlink:href="#aA"/><use transform="matrix(0.010850694444444444,0,0,0.010850694444444444,27.213541666666664,0)" xlink:href="#aB"/><use transform="matrix(0.010850694444444444,0,0,0.010850694444444444,35.92664930555555,0)" xlink:href="#aG"/><use transform="matrix(0.010850694444444444,0,0,0.010850694444444444,48.41579861111111,0)" xlink:href="#aC"/><use transform="matrix(0.010850694444444444,0,0,0.010850694444444444,53.79774305555556,0)" xlink:href="#bC"/><use transform="matrix(0.010850694444444444,0,0,0.010850694444444444,66.49305555555554,0)" xlink:href="#aA"/></g><g id="E"><use transform="matrix(0.008680555555555556,0,0,0.008680555555555556,0,0)" xlink:href="#bt"/><use transform="matrix(0.008680555555555556,0,0,0.008680555555555556,16.05902777777778,0)" xlink:href="#aT"/><use transform="matrix(0.008680555555555556,0,0,0.008680555555555556,26.423611111111118,0)" xlink:href="#aX"/><use transform="matrix(0.008680555555555556,0,0,0.008680555555555556,32.239583333333336,0)" xlink:href="#bb"/><use transform="matrix(0.008680555555555556,0,0,0.008680555555555556,39.21006944444444,0)" xlink:href="#aV"/><use transform="matrix(0.008680555555555556,0,0,0.008680555555555556,43.51562500000001,0)" xlink:href="#aW"/><use transform="matrix(0.008680555555555556,0,0,0.008680555555555556,53.67187500000001,0)" xlink:href="#bg"/></g><g id="F"><use transform="matrix(0.008680555555555556,0,0,0.008680555555555556,0,0)" xlink:href="#be"/><use transform="matrix(0.008680555555555556,0,0,0.008680555555555556,10.46875,0)" xlink:href="#bb"/><use transform="matrix(0.008680555555555556,0,0,0.008680555555555556,17.161458333333336,0)" xlink:href="#aP"/><use transform="matrix(0.008680555555555556,0,0,0.008680555555555556,27.144097222222225,0)" xlink:href="#aW"/><use transform="matrix(0.008680555555555556,0,0,0.008680555555555556,37.30034722222223,0)" xlink:href="#aT"/><use transform="matrix(0.008680555555555556,0,0,0.008680555555555556,47.664930555555564,0)" xlink:href="#bg"/></g><path d="M645 0H180v-1490h484c435 0 692 280 692 742 0 466-257 748-711 748zM370-168h263c363 0 539-218 539-580 0-358-176-574-521-574H370v1154" id="bD"/><g id="G"><use transform="matrix(0.010850694444444444,0,0,0.010850694444444444,0,0)" xlink:href="#bD"/><use transform="matrix(0.010850694444444444,0,0,0.010850694444444444,16.03732638888889,0)" xlink:href="#aT"/><use transform="matrix(0.010850694444444444,0,0,0.010850694444444444,28.559027777777775,0)" xlink:href="#bv"/><use transform="matrix(0.010850694444444444,0,0,0.010850694444444444,40.61414930555556,0)" xlink:href="#aT"/><use transform="matrix(0.010850694444444444,0,0,0.010850694444444444,53.56987847222222,0)" xlink:href="#aS"/><use transform="matrix(0.010850694444444444,0,0,0.010850694444444444,58.951822916666664,0)" xlink:href="#aY"/><use transform="matrix(0.010850694444444444,0,0,0.010850694444444444,72.27647569444444,0)" xlink:href="#aR"/><use transform="matrix(0.010850694444444444,0,0,0.010850694444444444,85.88324652777777,0)" xlink:href="#aT"/><use transform="matrix(0.010850694444444444,0,0,0.010850694444444444,98.83897569444444,0)" xlink:href="#bb"/></g><g id="H"><use transform="matrix(0.008680555555555556,0,0,0.008680555555555556,0,0)" xlink:href="#br"/><use transform="matrix(0.008680555555555556,0,0,0.008680555555555556,10.885416666666668,0)" xlink:href="#bs"/><use transform="matrix(0.008680555555555556,0,0,0.008680555555555556,21.397569444444446,0)" xlink:href="#aT"/><use transform="matrix(0.008680555555555556,0,0,0.008680555555555556,31.76215277777778,0)" xlink:href="#bb"/><use transform="matrix(0.008680555555555556,0,0,0.008680555555555556,38.73263888888889,0)" xlink:href="#aV"/><use transform="matrix(0.008680555555555556,0,0,0.008680555555555556,43.03819444444444,0)" xlink:href="#aT"/><use transform="matrix(0.008680555555555556,0,0,0.008680555555555556,53.402777777777786,0)" xlink:href="#bg"/></g><g id="I"><use transform="matrix(0.008680555555555556,0,0,0.008680555555555556,0,0)" xlink:href="#bc"/><use transform="matrix(0.008680555555555556,0,0,0.008680555555555556,6.579861111111112,0)" xlink:href="#bb"/><use transform="matrix(0.008680555555555556,0,0,0.008680555555555556,12.977430555555559,0)" xlink:href="#aY"/><use transform="matrix(0.008680555555555556,0,0,0.008680555555555556,23.63715277777778,0)" xlink:href="#aQ"/></g><g id="J"><use transform="matrix(0.008680555555555556,0,0,0.008680555555555556,0,0)" xlink:href="#bo"/><use transform="matrix(0.008680555555555556,0,0,0.008680555555555556,10.052083333333334,0)" xlink:href="#bo"/><use transform="matrix(0.008680555555555556,0,0,0.008680555555555556,20.104166666666668,0)" xlink:href="#bt"/></g><path d="M784 20c-382 0-662-292-662-764 0-473 280-766 662-766s660 293 660 766c0 472-278 764-660 764zm0-176c266 0 475-207 475-588 0-383-209-590-475-590-268 0-477 208-477 590 0 380 209 588 477 588" id="bE"/><path d="M677 24c-213 0-288-135-325-197h-20V0H158v-1490h180v551h14c37-59 106-193 324-193 279 0 474 222 474 576 0 356-194 580-473 580zm-27-161c209 0 317-186 317-421 0-232-105-413-317-413-206 0-314 166-314 413 0 249 111 421 314 421" id="bF"/><g id="K"><use transform="matrix(0.010850694444444444,0,0,0.010850694444444444,0,0)" xlink:href="#bE"/><use transform="matrix(0.010850694444444444,0,0,0.010850694444444444,16.9921875,0)" xlink:href="#bF"/><use transform="matrix(0.010850694444444444,0,0,0.010850694444444444,30.598958333333332,0)" xlink:href="#bg"/><use transform="matrix(0.010850694444444444,0,0,0.010850694444444444,42.32855902777778,0)" xlink:href="#aT"/><use transform="matrix(0.010850694444444444,0,0,0.010850694444444444,55.28428819444444,0)" xlink:href="#bb"/><use transform="matrix(0.010850694444444444,0,0,0.010850694444444444,63.99739583333333,0)" xlink:href="#bv"/><use transform="matrix(0.010850694444444444,0,0,0.010850694444444444,76.37803819444444,0)" xlink:href="#aP"/><use transform="matrix(0.010850694444444444,0,0,0.010850694444444444,88.85633680555556,0)" xlink:href="#bF"/><use transform="matrix(0.010850694444444444,0,0,0.010850694444444444,102.46310763888889,0)" xlink:href="#aV"/><use transform="matrix(0.010850694444444444,0,0,0.010850694444444444,107.84505208333333,0)" xlink:href="#aS"/><use transform="matrix(0.010850694444444444,0,0,0.010850694444444444,113.22699652777777,0)" xlink:href="#aV"/><use transform="matrix(0.010850694444444444,0,0,0.010850694444444444,118.60894097222221,0)" xlink:href="#aX"/><use transform="matrix(0.010850694444444444,0,0,0.010850694444444444,126.31293402777776,0)" xlink:href="#bd"/></g><g id="L"><use transform="matrix(0.010850694444444444,0,0,0.010850694444444444,0,0)" xlink:href="#bD"/><use transform="matrix(0.010850694444444444,0,0,0.010850694444444444,16.03732638888889,0)" xlink:href="#aP"/><use transform="matrix(0.010850694444444444,0,0,0.010850694444444444,28.515625,0)" xlink:href="#aX"/><use transform="matrix(0.010850694444444444,0,0,0.010850694444444444,35.89409722222222,0)" xlink:href="#aP"/></g><g id="M"><use transform="matrix(0.010850694444444444,0,0,0.010850694444444444,0,0)" xlink:href="#aO"/><use transform="matrix(0.010850694444444444,0,0,0.010850694444444444,14.2578125,0)" xlink:href="#aX"/><use transform="matrix(0.010850694444444444,0,0,0.010850694444444444,21.31076388888889,0)" xlink:href="#aY"/><use transform="matrix(0.010850694444444444,0,0,0.010850694444444444,34.635416666666664,0)" xlink:href="#bb"/><use transform="matrix(0.010850694444444444,0,0,0.010850694444444444,43.00130208333333,0)" xlink:href="#aP"/><use transform="matrix(0.010850694444444444,0,0,0.010850694444444444,55.47960069444444,0)" xlink:href="#bh"/><use transform="matrix(0.010850694444444444,0,0,0.010850694444444444,69.10807291666666,0)" xlink:href="#aT"/></g><path d="M135 0v-1490h581c339 0 533 210 533 503 0 295-197 500-540 500H440V0H135zm305-733h220c186 0 274-104 274-254s-88-251-275-251H440v505" id="bG"/><path d="M128 0v-1118h290v195h12c54-169 184-238 367-200v268c-27-8-86-15-130-15-138 0-239 95-239 234V0H128" id="bH"/><path d="M628 22C291 22 81-210 81-554c0-346 210-578 547-578 336 0 547 232 547 578 0 344-211 576-547 576zm0-236c160 0 242-146 242-341 0-197-82-341-242-341S387-753 387-555c0 195 81 341 241 341" id="bI"/><path d="M128 0v-1118h278l12 217c60-163 185-234 319-234 143 0 236 81 288 251 63-172 205-251 359-251 205 0 357 138 357 381V0h-301v-697c0-126-76-187-177-187-114 0-184 79-184 196V0H789v-705c0-109-72-179-174-179-106 0-187 74-187 208V0H128" id="bJ"/><path d="M633 22C291 22 81-200 81-553c0-345 210-579 537-579 292 0 525 185 525 567v84H378c7 183 109 277 260 277 105 0 184-46 216-132l272 51C1071-99 893 22 633 22zM380-669h474c-15-146-94-237-233-237-143 0-229 99-241 237" id="bK"/><path d="M683-1118v229H474v562c0 71 29 104 102 104 23 0 73-7 95-13l43 225C647 9 580 16 520 16 296 16 174-96 174-301v-588H20v-229h154v-266h300v266h209" id="bL"/><path d="M428-647V0H128v-1490h294v586c65-146 175-228 341-228 232 0 385 159 385 421V0H847v-659c0-139-76-222-202-222-128 0-217 86-217 234" id="bM"/><path d="M513 14c-232 0-385-159-385-421v-711h300v659c0 139 76 222 202 222 127 0 217-86 217-234v-647h301V0H864l-4-232C797-74 683 14 513 14" id="bN"/><path d="M572 22C302 22 117-98 78-306l279-48c29 105 101 156 224 156 114 0 185-48 185-115 0-118-228-130-337-155-215-49-322-150-322-317 0-215 187-347 470-347 265 0 424 116 466 298l-266 47c-24-76-87-130-196-130-98 0-174 46-174 113 0 56 38 95 144 117l201 40c216 44 320 143 320 302 0 220-207 367-500 367" id="bO"/><g id="N"><use transform="matrix(0.010850694444444444,0,0,0.010850694444444444,0,0)" xlink:href="#bG"/><use transform="matrix(0.010850694444444444,0,0,0.010850694444444444,14.398871527777777,0)" xlink:href="#bH"/><use transform="matrix(0.010850694444444444,0,0,0.010850694444444444,22.90581597222222,0)" xlink:href="#bI"/><use transform="matrix(0.010850694444444444,0,0,0.010850694444444444,36.53428819444444,0)" xlink:href="#bJ"/><use transform="matrix(0.010850694444444444,0,0,0.010850694444444444,56.81423611111111,0)" xlink:href="#bK"/><use transform="matrix(0.010850694444444444,0,0,0.010850694444444444,70.05208333333333,0)" xlink:href="#bL"/><use transform="matrix(0.010850694444444444,0,0,0.010850694444444444,78.24435763888889,0)" xlink:href="#bM"/><use transform="matrix(0.010850694444444444,0,0,0.010850694444444444,92.07899305555556,0)" xlink:href="#bK"/><use transform="matrix(0.010850694444444444,0,0,0.010850694444444444,105.31684027777777,0)" xlink:href="#bN"/><use transform="matrix(0.010850694444444444,0,0,0.010850694444444444,119.15147569444444,0)" xlink:href="#bO"/></g><g id="O"><use transform="matrix(0.008680555555555556,0,0,0.008680555555555556,0,0)" xlink:href="#bt"/><use transform="matrix(0.008680555555555556,0,0,0.008680555555555556,16.05902777777778,0)" xlink:href="#aT"/><use transform="matrix(0.008680555555555556,0,0,0.008680555555555556,26.423611111111118,0)" xlink:href="#aX"/><use transform="matrix(0.008680555555555556,0,0,0.008680555555555556,32.239583333333336,0)" xlink:href="#bb"/><use transform="matrix(0.008680555555555556,0,0,0.008680555555555556,39.21006944444444,0)" xlink:href="#aV"/><use transform="matrix(0.008680555555555556,0,0,0.008680555555555556,43.51562500000001,0)" xlink:href="#aW"/><use transform="matrix(0.008680555555555556,0,0,0.008680555555555556,53.67187500000001,0)" xlink:href="#bg"/></g><g id="P"><use transform="matrix(0.008680555555555556,0,0,0.008680555555555556,0,0)" xlink:href="#aO"/><use transform="matrix(0.008680555555555556,0,0,0.008680555555555556,11.40625,0)" xlink:href="#aX"/><use transform="matrix(0.008680555555555556,0,0,0.008680555555555556,17.04861111111111,0)" xlink:href="#aY"/><use transform="matrix(0.008680555555555556,0,0,0.008680555555555556,27.708333333333336,0)" xlink:href="#bb"/><use transform="matrix(0.008680555555555556,0,0,0.008680555555555556,34.40104166666667,0)" xlink:href="#aP"/><use transform="matrix(0.008680555555555556,0,0,0.008680555555555556,44.38368055555556,0)" xlink:href="#bh"/><use transform="matrix(0.008680555555555556,0,0,0.008680555555555556,55.286458333333336,0)" xlink:href="#aT"/></g><path d="M135 0v-1490h305v1237h643V0H135" id="bP"/><path d="M128 0v-1490h300v802h17l366-430h347L740-633 1179 0H826L514-456l-86 97V0H128" id="bQ"/><path d="M128 0v-1118h300V0H128zm150-1264c-91 0-165-68-165-154 0-85 74-154 165-154 90 0 165 69 165 154 0 86-75 154-165 154" id="bR"/><g id="Q"><use transform="matrix(0.010850694444444444,0,0,0.010850694444444444,0,0)" xlink:href="#bP"/><use transform="matrix(0.010850694444444444,0,0,0.010850694444444444,12.565104166666666,0)" xlink:href="#bI"/><use transform="matrix(0.010850694444444444,0,0,0.010850694444444444,26.19357638888889,0)" xlink:href="#bQ"/><use transform="matrix(0.010850694444444444,0,0,0.010850694444444444,39.084201388888886,0)" xlink:href="#bR"/></g><g id="R"><use transform="matrix(0.008680555555555556,0,0,0.008680555555555556,0,0)" xlink:href="#bo"/><use transform="matrix(0.008680555555555556,0,0,0.008680555555555556,10.052083333333334,0)" xlink:href="#aY"/><use transform="matrix(0.008680555555555556,0,0,0.008680555555555556,20.711805555555557,0)" xlink:href="#bh"/><use transform="matrix(0.008680555555555556,0,0,0.008680555555555556,31.614583333333336,0)" xlink:href="#bg"/></g><path d="M75-1237v-253h1217v253H837V0H531v-1237H75" id="bS"/><path d="M128 418v-1536h295v188h14c41-89 129-202 319-202 248 0 453 193 453 575 0 372-197 576-455 576-183 0-275-108-317-198h-9v597H128zm534-640c156 0 240-139 240-336 0-196-83-334-240-334-154 0-241 131-241 334 0 202 88 336 241 336" id="bT"/><g id="S"><use transform="matrix(0.010850694444444444,0,0,0.010850694444444444,0,0)" xlink:href="#bS"/><use transform="matrix(0.010850694444444444,0,0,0.010850694444444444,13.096788194444445,0)" xlink:href="#bK"/><use transform="matrix(0.010850694444444444,0,0,0.010850694444444444,26.334635416666664,0)" xlink:href="#bJ"/><use transform="matrix(0.010850694444444444,0,0,0.010850694444444444,46.61458333333333,0)" xlink:href="#bT"/><use transform="matrix(0.010850694444444444,0,0,0.010850694444444444,60.62282986111111,0)" xlink:href="#bI"/></g><g id="T"><use transform="matrix(0.008680555555555556,0,0,0.008680555555555556,0,0)" xlink:href="#be"/><use transform="matrix(0.008680555555555556,0,0,0.008680555555555556,10.46875,0)" xlink:href="#bb"/><use transform="matrix(0.008680555555555556,0,0,0.008680555555555556,17.161458333333336,0)" xlink:href="#aP"/><use transform="matrix(0.008680555555555556,0,0,0.008680555555555556,27.144097222222225,0)" xlink:href="#aW"/><use transform="matrix(0.008680555555555556,0,0,0.008680555555555556,37.30034722222223,0)" xlink:href="#aT"/></g><path d="M338-670V0H158v-1490h180v566c73-149 190-208 336-208 226 0 379 139 379 422V0H872v-695c0-172-96-275-252-275-161 0-282 109-282 300" id="bU"/><g id="U"><use transform="matrix(0.008680555555555556,0,0,0.008680555555555556,0,0)" xlink:href="#bD"/><use transform="matrix(0.008680555555555556,0,0,0.008680555555555556,12.829861111111112,0)" xlink:href="#aP"/><use transform="matrix(0.008680555555555556,0,0,0.008680555555555556,22.8125,0)" xlink:href="#bg"/><use transform="matrix(0.008680555555555556,0,0,0.008680555555555556,32.19618055555556,0)" xlink:href="#bU"/><use transform="matrix(0.008680555555555556,0,0,0.008680555555555556,42.708333333333336,0)" xlink:href="#bF"/><use transform="matrix(0.008680555555555556,0,0,0.008680555555555556,53.59375,0)" xlink:href="#aY"/><use transform="matrix(0.008680555555555556,0,0,0.008680555555555556,64.42708333333334,0)" xlink:href="#aP"/><use transform="matrix(0.008680555555555556,0,0,0.008680555555555556,74.40972222222223,0)" xlink:href="#bb"/><use transform="matrix(0.008680555555555556,0,0,0.008680555555555556,80.80729166666667,0)" xlink:href="#bj"/></g><g id="V"><use transform="matrix(0.008680555555555556,0,0,0.008680555555555556,0,0)" xlink:href="#aQ"/><use transform="matrix(0.008680555555555556,0,0,0.008680555555555556,15.572916666666668,0)" xlink:href="#aY"/><use transform="matrix(0.008680555555555556,0,0,0.008680555555555556,26.232638888888893,0)" xlink:href="#aZ"/><use transform="matrix(0.008680555555555556,0,0,0.008680555555555556,36.736111111111114,0)" xlink:href="#aV"/><use transform="matrix(0.008680555555555556,0,0,0.008680555555555556,41.04166666666667,0)" xlink:href="#aX"/><use transform="matrix(0.008680555555555556,0,0,0.008680555555555556,46.68402777777778,0)" xlink:href="#aY"/><use transform="matrix(0.008680555555555556,0,0,0.008680555555555556,57.34375,0)" xlink:href="#bb"/><use transform="matrix(0.008680555555555556,0,0,0.008680555555555556,64.31423611111111,0)" xlink:href="#aV"/><use transform="matrix(0.008680555555555556,0,0,0.008680555555555556,68.61979166666667,0)" xlink:href="#aZ"/><use transform="matrix(0.008680555555555556,0,0,0.008680555555555556,79.12326388888889,0)" xlink:href="#bh"/></g><g id="W"><use transform="matrix(0.008680555555555556,0,0,0.008680555555555556,0,0)" xlink:href="#bq"/><use transform="matrix(0.008680555555555556,0,0,0.008680555555555556,11.354166666666668,0)" xlink:href="#bb"/><use transform="matrix(0.008680555555555556,0,0,0.008680555555555556,17.751736111111114,0)" xlink:href="#aY"/><use transform="matrix(0.008680555555555556,0,0,0.008680555555555556,28.411458333333336,0)" xlink:href="#aQ"/><use transform="matrix(0.008680555555555556,0,0,0.008680555555555556,43.984375,0)" xlink:href="#aR"/><use transform="matrix(0.008680555555555556,0,0,0.008680555555555556,54.86979166666667,0)" xlink:href="#aX"/></g><path d="M593-100v-404H195v-159h398v-403h169v403h398v159H762v404H593" id="bV"/><use transform="matrix(0.008680555555555556,0,0,0.008680555555555556,0,0)" xlink:href="#bV" id="X"/><path d="M65 0l393-574-370-544h210c88 136 192 297 267 435 67-142 176-302 264-435h206L661-564 1053 0H844c-94-144-206-310-287-458C484-308 366-142 273 0H65" id="bW"/><g id="Y"><use transform="matrix(0.008680555555555556,0,0,0.008680555555555556,0,0)" xlink:href="#aW"/><use transform="matrix(0.008680555555555556,0,0,0.008680555555555556,10.15625,0)" xlink:href="#aY"/><use transform="matrix(0.008680555555555556,0,0,0.008680555555555556,20.81597222222222,0)" xlink:href="#aZ"/><use transform="matrix(0.008680555555555556,0,0,0.008680555555555556,31.319444444444443,0)" xlink:href="#aX"/><use transform="matrix(0.008680555555555556,0,0,0.008680555555555556,36.96180555555556,0)" xlink:href="#aT"/><use transform="matrix(0.008680555555555556,0,0,0.008680555555555556,46.927083333333336,0)" xlink:href="#bW"/><use transform="matrix(0.008680555555555556,0,0,0.008680555555555556,56.97916666666667,0)" xlink:href="#aX"/></g><path d="M180 0v-1490h224l606 953c40 63 108 177 176 312-27-437-7-821-13-1265h190V0h-226C860-448 622-778 356-1262c27 476 11 792 15 1262H180" id="bX"/><g id="Z"><use transform="matrix(0.008680555555555556,0,0,0.008680555555555556,0,0)" xlink:href="#bX"/><use transform="matrix(0.008680555555555556,0,0,0.008680555555555556,13.394097222222223,0)" xlink:href="#aP"/><use transform="matrix(0.008680555555555556,0,0,0.008680555555555556,23.376736111111118,0)" xlink:href="#aX"/><use transform="matrix(0.008680555555555556,0,0,0.008680555555555556,29.192708333333336,0)" xlink:href="#bs"/><use transform="matrix(0.008680555555555556,0,0,0.008680555555555556,39.704861111111114,0)" xlink:href="#bb"/><use transform="matrix(0.008680555555555556,0,0,0.008680555555555556,46.39756944444445,0)" xlink:href="#aP"/><use transform="matrix(0.008680555555555556,0,0,0.008680555555555556,56.38020833333334,0)" xlink:href="#aS"/></g><g id="aa"><use transform="matrix(0.008680555555555556,0,0,0.008680555555555556,0,0)" xlink:href="#aS"/><use transform="matrix(0.008680555555555556,0,0,0.008680555555555556,4.305555555555555,0)" xlink:href="#aP"/><use transform="matrix(0.008680555555555556,0,0,0.008680555555555556,14.288194444444445,0)" xlink:href="#aZ"/><use transform="matrix(0.008680555555555556,0,0,0.008680555555555556,24.791666666666668,0)" xlink:href="#bh"/><use transform="matrix(0.008680555555555556,0,0,0.008680555555555556,35.69444444444444,0)" xlink:href="#bs"/><use transform="matrix(0.008680555555555556,0,0,0.008680555555555556,46.20659722222222,0)" xlink:href="#aP"/><use transform="matrix(0.008680555555555556,0,0,0.008680555555555556,56.189236111111114,0)" xlink:href="#bh"/><use transform="matrix(0.008680555555555556,0,0,0.008680555555555556,67.09201388888889,0)" xlink:href="#aT"/></g><g id="ab"><use transform="matrix(0.008680555555555556,0,0,0.008680555555555556,0,0)" xlink:href="#br"/><use transform="matrix(0.008680555555555556,0,0,0.008680555555555556,10.885416666666668,0)" xlink:href="#bs"/><use transform="matrix(0.008680555555555556,0,0,0.008680555555555556,21.397569444444446,0)" xlink:href="#aT"/><use transform="matrix(0.008680555555555556,0,0,0.008680555555555556,31.76215277777778,0)" xlink:href="#bb"/><use transform="matrix(0.008680555555555556,0,0,0.008680555555555556,38.73263888888889,0)" xlink:href="#aV"/><use transform="matrix(0.008680555555555556,0,0,0.008680555555555556,43.03819444444444,0)" xlink:href="#aT"/><use transform="matrix(0.008680555555555556,0,0,0.008680555555555556,53.402777777777786,0)" xlink:href="#bg"/></g><g id="ac"><use transform="matrix(0.010850694444444444,0,0,0.010850694444444444,0,0)" xlink:href="#ba"/><use transform="matrix(0.010850694444444444,0,0,0.010850694444444444,16.57986111111111,0)" xlink:href="#bb"/><use transform="matrix(0.010850694444444444,0,0,0.010850694444444444,24.94574652777778,0)" xlink:href="#aP"/><use transform="matrix(0.010850694444444444,0,0,0.010850694444444444,37.424045138888886,0)" xlink:href="#bc"/><use transform="matrix(0.010850694444444444,0,0,0.010850694444444444,45.30164930555556,0)" xlink:href="#aP"/><use transform="matrix(0.010850694444444444,0,0,0.010850694444444444,57.77994791666667,0)" xlink:href="#aZ"/><use transform="matrix(0.010850694444444444,0,0,0.010850694444444444,70.90928819444444,0)" xlink:href="#aP"/></g><g id="ad"><use transform="matrix(0.010850694444444444,0,0,0.010850694444444444,0,0)" xlink:href="#bD"/><use transform="matrix(0.010850694444444444,0,0,0.010850694444444444,16.03732638888889,0)" xlink:href="#aP"/><use transform="matrix(0.010850694444444444,0,0,0.010850694444444444,28.515625,0)" xlink:href="#bg"/><use transform="matrix(0.010850694444444444,0,0,0.010850694444444444,40.24522569444444,0)" xlink:href="#bU"/><use transform="matrix(0.010850694444444444,0,0,0.010850694444444444,53.385416666666664,0)" xlink:href="#bF"/><use transform="matrix(0.010850694444444444,0,0,0.010850694444444444,66.9921875,0)" xlink:href="#aY"/><use transform="matrix(0.010850694444444444,0,0,0.010850694444444444,80.53385416666666,0)" xlink:href="#aP"/><use transform="matrix(0.010850694444444444,0,0,0.010850694444444444,93.01215277777777,0)" xlink:href="#bb"/><use transform="matrix(0.010850694444444444,0,0,0.010850694444444444,101.00911458333333,0)" xlink:href="#bj"/><use transform="matrix(0.010850694444444444,0,0,0.010850694444444444,114.61588541666666,0)" xlink:href="#bg"/></g><path d="M580 20c-295 0-476-179-476-409 0-189 123-290 294-416-104-125-173-226-173-362 0-197 144-337 365-337 224 0 362 144 362 321 0 185-174 312-306 405l319 387c38-75 61-165 61-267h173c0 208-62 332-120 406L1287 0h-217L967-124C868-27 716 20 580 20zm279-273L507-675l-51 38c-123 91-167 162-167 254 0 147 113 246 278 246 107 0 210-41 292-116zM538-908l97-72c54-40 136-101 136-206 0-95-68-163-176-163-113 0-189 74-189 181 0 90 53 164 132 260" id="bY"/><use transform="matrix(0.010850694444444444,0,0,0.010850694444444444,0,0)" xlink:href="#bY" id="ae"/><path d="M126 0v-134l627-806v-11H146v-167h839v143L376-178v11h629V0H126" id="bZ"/><g id="af"><use transform="matrix(0.010850694444444444,0,0,0.010850694444444444,0,0)" xlink:href="#bv"/><use transform="matrix(0.010850694444444444,0,0,0.010850694444444444,12.489149305555555,0)" xlink:href="#aV"/><use transform="matrix(0.010850694444444444,0,0,0.010850694444444444,17.87109375,0)" xlink:href="#bZ"/><use transform="matrix(0.010850694444444444,0,0,0.010850694444444444,30.143229166666664,0)" xlink:href="#bs"/><use transform="matrix(0.010850694444444444,0,0,0.010850694444444444,43.283420138888886,0)" xlink:href="#aP"/><use transform="matrix(0.010850694444444444,0,0,0.010850694444444444,55.76171875,0)" xlink:href="#aS"/><use transform="matrix(0.010850694444444444,0,0,0.010850694444444444,61.14366319444444,0)" xlink:href="#aV"/><use transform="matrix(0.010850694444444444,0,0,0.010850694444444444,66.52560763888889,0)" xlink:href="#bZ"/><use transform="matrix(0.010850694444444444,0,0,0.010850694444444444,78.79774305555556,0)" xlink:href="#aP"/><use transform="matrix(0.010850694444444444,0,0,0.010850694444444444,91.27604166666666,0)" xlink:href="#aX"/><use transform="matrix(0.010850694444444444,0,0,0.010850694444444444,98.54600694444444,0)" xlink:href="#aV"/><use transform="matrix(0.010850694444444444,0,0,0.010850694444444444,103.92795138888889,0)" xlink:href="#aY"/><use transform="matrix(0.010850694444444444,0,0,0.010850694444444444,117.25260416666666,0)" xlink:href="#aZ"/></g><g id="ag"><use transform="matrix(0.010850694444444444,0,0,0.010850694444444444,0,0)" xlink:href="#bE"/><use transform="matrix(0.010850694444444444,0,0,0.010850694444444444,16.9921875,0)" xlink:href="#aR"/><use transform="matrix(0.010850694444444444,0,0,0.010850694444444444,30.598958333333332,0)" xlink:href="#aT"/><use transform="matrix(0.010850694444444444,0,0,0.010850694444444444,43.5546875,0)" xlink:href="#aZ"/><use transform="matrix(0.010850694444444444,0,0,0.010850694444444444,55.16493055555556,0)" xlink:href="#be"/><use transform="matrix(0.010850694444444444,0,0,0.010850694444444444,67.7734375,0)" xlink:href="#aT"/><use transform="matrix(0.010850694444444444,0,0,0.010850694444444444,80.72916666666667,0)" xlink:href="#aS"/><use transform="matrix(0.010850694444444444,0,0,0.010850694444444444,86.11111111111111,0)" xlink:href="#aT"/><use transform="matrix(0.010850694444444444,0,0,0.010850694444444444,99.0668402777778,0)" xlink:href="#aQ"/><use transform="matrix(0.010850694444444444,0,0,0.010850694444444444,118.5329861111111,0)" xlink:href="#aT"/><use transform="matrix(0.010850694444444444,0,0,0.010850694444444444,131.48871527777777,0)" xlink:href="#aX"/><use transform="matrix(0.010850694444444444,0,0,0.010850694444444444,138.75868055555554,0)" xlink:href="#bb"/><use transform="matrix(0.010850694444444444,0,0,0.010850694444444444,147.47178819444443,0)" xlink:href="#bd"/></g><g id="ah"><use transform="matrix(0.010850694444444444,0,0,0.010850694444444444,0,0)" xlink:href="#bo"/><use transform="matrix(0.010850694444444444,0,0,0.010850694444444444,12.565104166666666,0)" xlink:href="#bo"/><use transform="matrix(0.010850694444444444,0,0,0.010850694444444444,25.130208333333332,0)" xlink:href="#bt"/></g><g id="ai"><use transform="matrix(0.010850694444444444,0,0,0.010850694444444444,0,0)" xlink:href="#aU"/><use transform="matrix(0.010850694444444444,0,0,0.010850694444444444,15.33203125,0)" xlink:href="#aZ"/><use transform="matrix(0.010850694444444444,0,0,0.010850694444444444,28.461371527777775,0)" xlink:href="#aP"/><use transform="matrix(0.010850694444444444,0,0,0.010850694444444444,40.939670138888886,0)" xlink:href="#aS"/><use transform="matrix(0.010850694444444444,0,0,0.010850694444444444,46.43012152777778,0)" xlink:href="#bd"/><use transform="matrix(0.010850694444444444,0,0,0.010850694444444444,58.91927083333333,0)" xlink:href="#bg"/><use transform="matrix(0.010850694444444444,0,0,0.010850694444444444,70.64887152777777,0)" xlink:href="#aV"/><use transform="matrix(0.010850694444444444,0,0,0.010850694444444444,76.03081597222221,0)" xlink:href="#bg"/></g><g id="aj"><use transform="matrix(0.010850694444444444,0,0,0.010850694444444444,0,0)" xlink:href="#bo"/><use transform="matrix(0.010850694444444444,0,0,0.010850694444444444,12.565104166666666,0)" xlink:href="#aP"/><use transform="matrix(0.010850694444444444,0,0,0.010850694444444444,24.717881944444443,0)" xlink:href="#bd"/><use transform="matrix(0.010850694444444444,0,0,0.010850694444444444,36.77300347222222,0)" xlink:href="#aT"/><use transform="matrix(0.010850694444444444,0,0,0.010850694444444444,49.728732638888886,0)" xlink:href="#bb"/></g><path d="M370-1490V0H180v-1490h190" id="ca"/><g id="ak"><use transform="matrix(0.010850694444444444,0,0,0.010850694444444444,0,0)" xlink:href="#aU"/><use transform="matrix(0.010850694444444444,0,0,0.010850694444444444,15.33203125,0)" xlink:href="#ca"/></g><g id="al"><use transform="matrix(0.010850694444444444,0,0,0.010850694444444444,0,0)" xlink:href="#aP"/><use transform="matrix(0.010850694444444444,0,0,0.010850694444444444,12.47829861111111,0)" xlink:href="#bg"/><use transform="matrix(0.010850694444444444,0,0,0.010850694444444444,24.207899305555554,0)" xlink:href="#bg"/><use transform="matrix(0.010850694444444444,0,0,0.010850694444444444,35.9375,0)" xlink:href="#aV"/><use transform="matrix(0.010850694444444444,0,0,0.010850694444444444,41.31944444444444,0)" xlink:href="#bg"/><use transform="matrix(0.010850694444444444,0,0,0.010850694444444444,53.049045138888886,0)" xlink:href="#aX"/><use transform="matrix(0.010850694444444444,0,0,0.010850694444444444,60.42751736111111,0)" xlink:href="#aP"/><use transform="matrix(0.010850694444444444,0,0,0.010850694444444444,72.90581597222221,0)" xlink:href="#aZ"/><use transform="matrix(0.010850694444444444,0,0,0.010850694444444444,86.03515624999999,0)" xlink:href="#aX"/></g><g id="am"><use transform="matrix(0.010850694444444444,0,0,0.010850694444444444,0,0)" xlink:href="#bc"/><use transform="matrix(0.010850694444444444,0,0,0.010850694444444444,7.573784722222222,0)" xlink:href="#aY"/><use transform="matrix(0.010850694444444444,0,0,0.010850694444444444,20.8984375,0)" xlink:href="#bb"/></g><g id="an"><use transform="matrix(0.010850694444444444,0,0,0.010850694444444444,0,0)" xlink:href="#aX"/><use transform="matrix(0.010850694444444444,0,0,0.010850694444444444,7.052951388888888,0)" xlink:href="#aT"/><use transform="matrix(0.010850694444444444,0,0,0.010850694444444444,20.008680555555554,0)" xlink:href="#aS"/><use transform="matrix(0.010850694444444444,0,0,0.010850694444444444,25.390625,0)" xlink:href="#aT"/><use transform="matrix(0.010850694444444444,0,0,0.010850694444444444,38.346354166666664,0)" xlink:href="#aQ"/><use transform="matrix(0.010850694444444444,0,0,0.010850694444444444,57.8125,0)" xlink:href="#aT"/><use transform="matrix(0.010850694444444444,0,0,0.010850694444444444,70.76822916666667,0)" xlink:href="#aX"/><use transform="matrix(0.010850694444444444,0,0,0.010850694444444444,78.03819444444444,0)" xlink:href="#bb"/><use transform="matrix(0.010850694444444444,0,0,0.010850694444444444,86.75130208333334,0)" xlink:href="#bd"/></g><g id="ao"><use transform="matrix(0.010850694444444444,0,0,0.010850694444444444,0,0)" xlink:href="#aV"/><use transform="matrix(0.010850694444444444,0,0,0.010850694444444444,5.381944444444445,0)" xlink:href="#aZ"/><use transform="matrix(0.010850694444444444,0,0,0.010850694444444444,18.51128472222222,0)" xlink:href="#aX"/><use transform="matrix(0.010850694444444444,0,0,0.010850694444444444,25.56423611111111,0)" xlink:href="#aT"/><use transform="matrix(0.010850694444444444,0,0,0.010850694444444444,38.51996527777778,0)" xlink:href="#bb"/><use transform="matrix(0.010850694444444444,0,0,0.010850694444444444,47.233072916666664,0)" xlink:href="#aR"/><use transform="matrix(0.010850694444444444,0,0,0.010850694444444444,60.83984375,0)" xlink:href="#bb"/><use transform="matrix(0.010850694444444444,0,0,0.010850694444444444,68.83680555555556,0)" xlink:href="#aT"/><use transform="matrix(0.010850694444444444,0,0,0.010850694444444444,81.79253472222223,0)" xlink:href="#aX"/><use transform="matrix(0.010850694444444444,0,0,0.010850694444444444,89.17100694444444,0)" xlink:href="#aP"/><use transform="matrix(0.010850694444444444,0,0,0.010850694444444444,101.64930555555556,0)" xlink:href="#aX"/><use transform="matrix(0.010850694444444444,0,0,0.010850694444444444,108.91927083333333,0)" xlink:href="#aV"/><use transform="matrix(0.010850694444444444,0,0,0.010850694444444444,114.30121527777777,0)" xlink:href="#aY"/><use transform="matrix(0.010850694444444444,0,0,0.010850694444444444,127.62586805555556,0)" xlink:href="#aZ"/></g><g id="ap"><use transform="matrix(0.008680555555555556,0,0,0.008680555555555556,0,0)" xlink:href="#bo"/><use transform="matrix(0.008680555555555556,0,0,0.008680555555555556,10.052083333333334,0)" xlink:href="#aY"/><use transform="matrix(0.008680555555555556,0,0,0.008680555555555556,20.711805555555557,0)" xlink:href="#bh"/><use transform="matrix(0.008680555555555556,0,0,0.008680555555555556,31.614583333333336,0)" xlink:href="#bg"/></g><path d="M784 20c-382 0-662-292-662-764 0-473 280-766 662-766s660 293 660 766c0 282-99 499-260 629l192 255h-198L1049-33C969 2 880 20 784 20zm-62-486h198l156 205c112-98 183-261 183-483 0-383-209-590-475-590-268 0-477 208-477 590 0 380 209 588 477 588 54 0 106-9 154-25" id="cb"/><g id="aq"><use transform="matrix(0.008680555555555556,0,0,0.008680555555555556,0,0)" xlink:href="#cb"/><use transform="matrix(0.008680555555555556,0,0,0.008680555555555556,13.59375,0)" xlink:href="#bs"/><use transform="matrix(0.008680555555555556,0,0,0.008680555555555556,24.10590277777778,0)" xlink:href="#aT"/><use transform="matrix(0.008680555555555556,0,0,0.008680555555555556,34.470486111111114,0)" xlink:href="#bb"/><use transform="matrix(0.008680555555555556,0,0,0.008680555555555556,41.44097222222223,0)" xlink:href="#aV"/><use transform="matrix(0.008680555555555556,0,0,0.008680555555555556,45.746527777777786,0)" xlink:href="#aT"/><use transform="matrix(0.008680555555555556,0,0,0.008680555555555556,56.11111111111112,0)" xlink:href="#bj"/></g><g id="ar"><use transform="matrix(0.008680555555555556,0,0,0.008680555555555556,0,0)" xlink:href="#aX"/><use transform="matrix(0.008680555555555556,0,0,0.008680555555555556,5.642361111111112,0)" xlink:href="#aT"/><use transform="matrix(0.008680555555555556,0,0,0.008680555555555556,16.006944444444446,0)" xlink:href="#aS"/><use transform="matrix(0.008680555555555556,0,0,0.008680555555555556,20.3125,0)" xlink:href="#aT"/><use transform="matrix(0.008680555555555556,0,0,0.008680555555555556,30.677083333333336,0)" xlink:href="#aQ"/><use transform="matrix(0.008680555555555556,0,0,0.008680555555555556,46.25,0)" xlink:href="#aT"/><use transform="matrix(0.008680555555555556,0,0,0.008680555555555556,56.614583333333336,0)" xlink:href="#aX"/><use transform="matrix(0.008680555555555556,0,0,0.008680555555555556,62.43055555555556,0)" xlink:href="#bb"/><use transform="matrix(0.008680555555555556,0,0,0.008680555555555556,69.40104166666667,0)" xlink:href="#bd"/></g><g id="as"><use transform="matrix(0.008680555555555556,0,0,0.008680555555555556,0,0)" xlink:href="#be"/><use transform="matrix(0.008680555555555556,0,0,0.008680555555555556,10.086805555555555,0)" xlink:href="#aT"/><use transform="matrix(0.008680555555555556,0,0,0.008680555555555556,20.45138888888889,0)" xlink:href="#aS"/><use transform="matrix(0.008680555555555556,0,0,0.008680555555555556,24.756944444444443,0)" xlink:href="#aT"/><use transform="matrix(0.008680555555555556,0,0,0.008680555555555556,35.12152777777778,0)" xlink:href="#aQ"/><use transform="matrix(0.008680555555555556,0,0,0.008680555555555556,50.69444444444445,0)" xlink:href="#aT"/><use transform="matrix(0.008680555555555556,0,0,0.008680555555555556,61.05902777777778,0)" xlink:href="#aX"/><use transform="matrix(0.008680555555555556,0,0,0.008680555555555556,66.875,0)" xlink:href="#bb"/><use transform="matrix(0.008680555555555556,0,0,0.008680555555555556,73.8454861111111,0)" xlink:href="#bd"/></g><g id="at"><use transform="matrix(0.008680555555555556,0,0,0.008680555555555556,0,0)" xlink:href="#br"/><use transform="matrix(0.008680555555555556,0,0,0.008680555555555556,10.885416666666668,0)" xlink:href="#bs"/><use transform="matrix(0.008680555555555556,0,0,0.008680555555555556,21.397569444444446,0)" xlink:href="#aT"/><use transform="matrix(0.008680555555555556,0,0,0.008680555555555556,31.76215277777778,0)" xlink:href="#bb"/><use transform="matrix(0.008680555555555556,0,0,0.008680555555555556,38.73263888888889,0)" xlink:href="#aV"/><use transform="matrix(0.008680555555555556,0,0,0.008680555555555556,43.03819444444444,0)" xlink:href="#aT"/><use transform="matrix(0.008680555555555556,0,0,0.008680555555555556,53.402777777777786,0)" xlink:href="#bg"/></g><g id="au"><use transform="matrix(0.008680555555555556,0,0,0.008680555555555556,0,0)" xlink:href="#aW"/><use transform="matrix(0.008680555555555556,0,0,0.008680555555555556,10.15625,0)" xlink:href="#aY"/><use transform="matrix(0.008680555555555556,0,0,0.008680555555555556,20.81597222222222,0)" xlink:href="#aZ"/><use transform="matrix(0.008680555555555556,0,0,0.008680555555555556,31.319444444444443,0)" xlink:href="#aX"/><use transform="matrix(0.008680555555555556,0,0,0.008680555555555556,36.96180555555556,0)" xlink:href="#aT"/><use transform="matrix(0.008680555555555556,0,0,0.008680555555555556,46.927083333333336,0)" xlink:href="#bW"/><use transform="matrix(0.008680555555555556,0,0,0.008680555555555556,56.97916666666667,0)" xlink:href="#aX"/></g><g id="av"><use transform="matrix(0.008680555555555556,0,0,0.008680555555555556,0,0)" xlink:href="#be"/><use transform="matrix(0.008680555555555556,0,0,0.008680555555555556,10.086805555555555,0)" xlink:href="#aT"/><use transform="matrix(0.008680555555555556,0,0,0.008680555555555556,20.45138888888889,0)" xlink:href="#aS"/><use transform="matrix(0.008680555555555556,0,0,0.008680555555555556,24.756944444444443,0)" xlink:href="#aT"/><use transform="matrix(0.008680555555555556,0,0,0.008680555555555556,35.12152777777778,0)" xlink:href="#aQ"/><use transform="matrix(0.008680555555555556,0,0,0.008680555555555556,50.69444444444445,0)" xlink:href="#aT"/><use transform="matrix(0.008680555555555556,0,0,0.008680555555555556,61.05902777777778,0)" xlink:href="#aX"/><use transform="matrix(0.008680555555555556,0,0,0.008680555555555556,66.875,0)" xlink:href="#bb"/><use transform="matrix(0.008680555555555556,0,0,0.008680555555555556,73.8454861111111,0)" xlink:href="#bd"/></g></defs></g></svg>